<svg width="66" height="21" viewBox="0 0 66 21" fill="none" xmlns="http://www.w3.org/2000/svg">
<path fill-rule="evenodd" clip-rule="evenodd" d="M10.9775 11.495L8.62614 5.53794L6.28818 11.495H10.9775ZM33.5309 17.9428L33.5179 6.23969L28.5363 17.9428H25.5199L20.5253 6.22933V17.9428H13.5379L12.2178 14.6098H5.06479L3.73129 17.9428H0L6.15205 3H11.2563L17.0992 17.1477V3H22.7064L27.2024 13.1369L31.3325 3H37.0523V17.9428H33.5309ZM42.52 14.8852V11.9114H50.0623V8.86189H42.52V6.14457H51.1331L54.8908 10.5002L50.9666 14.8852H42.52ZM65.7966 18H61.3325L57.1022 13.0521L52.7059 18H39.0978V3.05361H52.9153L57.1421 7.95281L61.512 3.05361H66L59.3236 10.5268L65.7966 18Z" fill="white"/>
</svg>
