<svg width="60" height="58" viewBox="0 0 60 58" fill="none" xmlns="http://www.w3.org/2000/svg">
<g filter="url(#filter0_dii_313_5413)">
<rect y="2" width="56" height="56" rx="28" fill="#F64E2A"/>
<path d="M26.924 39.0563C26.9023 39.1367 26.8806 39.2171 26.8589 39.2975C27.2659 39.5024 27.6627 39.7305 28.0824 39.9078C31.0828 41.1724 34.0855 42.4282 37.0917 43.6796C37.4038 43.8096 37.732 43.9264 38.0659 43.9804C38.6856 44.0806 39.119 43.7766 39.1853 43.1718C39.2231 42.8347 39.1728 42.4756 39.0939 42.1418C38.489 39.5476 37.8441 36.9622 37.2609 34.3636C36.895 32.7365 37.2975 31.2461 38.4684 30.0189C41.2927 27.0612 44.1559 24.1365 46.9974 21.1941C47.3153 20.8648 47.7761 20.5045 47.5303 20.0154C47.2719 19.5032 46.6876 19.6839 46.237 19.7544C41.8587 20.4351 37.4816 21.1313 33.1067 21.8308C32.8026 21.8793 32.5098 21.9928 32.2114 22.0754C32.2125 22.1382 32.2148 22.1999 32.216 22.2627C32.4973 22.3266 32.7763 22.4158 33.061 22.4477C34.3657 22.5964 35.6715 22.7253 36.9773 22.8696C37.5468 22.9324 38.194 22.9545 38.4078 23.5802C38.6216 24.2037 38.1162 24.5991 37.7057 24.9803C36.2226 26.3539 34.7304 27.7199 33.2428 29.0881C31.9941 30.237 31.6522 31.8541 32.3452 33.3721C32.9729 34.7491 33.6178 36.1195 34.2399 37.4987C34.7956 38.7324 34.1335 39.6203 32.7591 39.4925C31.1102 39.3394 29.4625 39.1676 27.8125 39.0199C27.5209 38.9935 27.2213 39.042 26.9252 39.0552L26.924 39.0563ZM21.9866 30.1952C22.0712 30.1775 22.1547 30.1599 22.2393 30.1423C22.2782 29.8438 22.3365 29.5463 22.3525 29.2467C22.4417 27.5998 22.452 25.9453 22.6281 24.3061C22.7619 23.0646 23.6881 22.5061 24.9642 22.7507C26.9035 23.123 28.8359 23.5361 30.7752 23.9073C31.0874 23.9668 31.427 23.8941 31.754 23.8831C31.5642 23.6143 31.4258 23.2871 31.1777 23.0878C29.586 21.8055 27.9692 20.553 26.3615 19.2884C23.9876 17.4212 21.6207 15.5452 19.2354 13.6901C18.9164 13.4412 18.507 12.9785 18.1126 13.3211C17.8759 13.526 17.8381 14.1076 17.9273 14.4712C19.152 19.4635 20.412 24.4482 21.6721 29.4329C21.7385 29.6961 21.8791 29.9418 21.9854 30.1963L21.9866 30.1952ZM20.1868 29.9682C20.133 29.9396 20.0804 29.911 20.0267 29.8834C19.8209 30.0487 19.5945 30.1963 19.4104 30.3824C16.4008 33.4217 13.3958 36.4643 10.3942 39.5101C10.2124 39.6952 10.0386 39.899 9.91282 40.1215C9.6624 40.5655 9.83506 40.8871 10.3622 40.9224C10.6789 40.9433 11.006 40.8827 11.3216 40.8232C14.6067 40.2064 17.8919 39.5851 21.1759 38.9594C23.2272 38.5683 25.282 38.1905 27.3208 37.7465C27.673 37.6694 28.0744 37.3499 28.2367 37.0371C28.4551 36.6207 28.1235 36.2263 27.7793 35.9443C26.7194 35.0785 25.6502 34.2248 24.5731 33.3787C24.4176 33.2565 24.2003 33.2069 23.8573 33.0549C23.951 33.4636 23.9842 33.7125 24.0677 33.945C24.2781 34.5343 24.5354 35.1082 24.7263 35.702C24.9481 36.3916 24.6531 36.7716 23.9053 36.787C23.0866 36.8047 22.2656 36.7551 21.4492 36.8025C19.6848 36.906 19.0216 35.5632 19.3246 34.2986C19.599 33.1562 19.8529 32.0084 20.0987 30.8594C20.1605 30.5686 20.1593 30.2657 20.1868 29.9682Z" fill="#00020C"/>
</g>
<defs>
<filter id="filter0_dii_313_5413" x="-3" y="0" width="63" height="61" filterUnits="userSpaceOnUse" color-interpolation-filters="sRGB">
<feFlood flood-opacity="0" result="BackgroundImageFix"/>
<feColorMatrix in="SourceAlpha" type="matrix" values="0 0 0 0 0 0 0 0 0 0 0 0 0 0 0 0 0 0 127 0" result="hardAlpha"/>
<feOffset dx="4" dy="-2"/>
<feComposite in2="hardAlpha" operator="out"/>
<feColorMatrix type="matrix" values="0 0 0 0 0.626667 0 0 0 0 0.0647555 0 0 0 0 0.0647555 0 0 0 1 0"/>
<feBlend mode="normal" in2="BackgroundImageFix" result="effect1_dropShadow_313_5413"/>
<feBlend mode="normal" in="SourceGraphic" in2="effect1_dropShadow_313_5413" result="shape"/>
<feColorMatrix in="SourceAlpha" type="matrix" values="0 0 0 0 0 0 0 0 0 0 0 0 0 0 0 0 0 0 127 0" result="hardAlpha"/>
<feOffset dx="4" dy="-1"/>
<feGaussianBlur stdDeviation="3"/>
<feComposite in2="hardAlpha" operator="arithmetic" k2="-1" k3="1"/>
<feColorMatrix type="matrix" values="0 0 0 0 1 0 0 0 0 1 0 0 0 0 1 0 0 0 0.2 0"/>
<feBlend mode="normal" in2="shape" result="effect2_innerShadow_313_5413"/>
<feColorMatrix in="SourceAlpha" type="matrix" values="0 0 0 0 0 0 0 0 0 0 0 0 0 0 0 0 0 0 127 0" result="hardAlpha"/>
<feOffset dx="-3" dy="3"/>
<feGaussianBlur stdDeviation="2"/>
<feComposite in2="hardAlpha" operator="arithmetic" k2="-1" k3="1"/>
<feColorMatrix type="matrix" values="0 0 0 0 1 0 0 0 0 1 0 0 0 0 1 0 0 0 0.13 0"/>
<feBlend mode="normal" in2="effect2_innerShadow_313_5413" result="effect3_innerShadow_313_5413"/>
</filter>
</defs>
</svg>
