<svg width="20" height="20" viewBox="0 0 20 20" fill="none" xmlns="http://www.w3.org/2000/svg">
<path fill-rule="evenodd" clip-rule="evenodd" d="M4.5 1.6665H15.5C16.6046 1.6665 17.5 2.56193 17.5 3.6665V15.4875C17.5 16.8727 16.1259 17.8385 14.8226 17.3693L14.0941 17.1071C13.6061 16.9314 13.0689 16.9521 12.596 17.165L10.8207 17.9638C10.2988 18.1987 9.70122 18.1987 9.17927 17.9638L7.40404 17.165C6.93105 16.9521 6.39388 16.9314 5.90587 17.1071L5.17744 17.3693C3.87412 17.8385 2.5 16.8727 2.5 15.4875V3.6665C2.5 2.56193 3.39543 1.6665 4.5 1.6665ZM14.1667 6.58317C14.5809 6.58317 14.9167 6.24738 14.9167 5.83317C14.9167 5.41896 14.5809 5.08317 14.1667 5.08317L5.83333 5.08317C5.41912 5.08317 5.08333 5.41896 5.08333 5.83317C5.08333 6.24738 5.41912 6.58317 5.83333 6.58317L14.1667 6.58317ZM14.9167 9.1665C14.9167 9.58072 14.5809 9.9165 14.1667 9.9165L5.83333 9.9165C5.41912 9.9165 5.08333 9.58072 5.08333 9.1665C5.08333 8.75229 5.41912 8.4165 5.83333 8.4165L14.1667 8.4165C14.5809 8.4165 14.9167 8.75229 14.9167 9.1665ZM10 13.2498C10.4142 13.2498 10.75 12.9141 10.75 12.4998C10.75 12.0856 10.4142 11.7498 10 11.7498H5.83333C5.41912 11.7498 5.08333 12.0856 5.08333 12.4998C5.08333 12.9141 5.41912 13.2498 5.83333 13.2498H10Z" fill="white"/>
</svg>
