<svg width="28" height="28" viewBox="0 0 28 28" fill="none" xmlns="http://www.w3.org/2000/svg">
<path d="M27.58 17.3865C25.7101 24.8865 18.1138 29.451 10.6128 27.5807C3.11497 25.7108 -1.44947 18.114 0.42128 10.6144C2.29028 3.11346 9.88659 -1.45142 17.3853 0.41846C24.8858 2.28834 29.4498 9.88596 27.58 17.3865Z" fill="white"/>
<path d="M20.1731 12.0052C20.4518 10.1424 19.0334 9.14093 17.094 8.47287L17.7231 5.94937L16.187 5.56655L15.5745 8.02356C15.1707 7.92293 14.756 7.82799 14.3438 7.73393L14.9607 5.26074L13.4255 4.87793L12.796 7.40056C12.4617 7.32443 12.1336 7.24918 11.8151 7.16999L11.8168 7.16212L9.69845 6.63318L9.28983 8.27381C9.28983 8.27381 10.4295 8.53499 10.4055 8.55118C11.0276 8.70649 11.14 9.11818 11.1212 9.44455L10.4046 12.3194C10.4475 12.3303 10.503 12.3461 10.5643 12.3706C10.5131 12.3579 10.4584 12.3439 10.402 12.3303L9.39745 16.3575C9.32133 16.5465 9.12839 16.83 8.69352 16.7224C8.70883 16.7447 7.57702 16.4437 7.57702 16.4437L6.81445 18.202L8.81339 18.7003C9.18527 18.7935 9.5497 18.8911 9.90845 18.9829L9.27277 21.5353L10.8071 21.9181L11.4366 19.3929C11.8558 19.5066 12.2626 19.6116 12.6608 19.7105L12.0334 22.2239L13.5695 22.6067L14.2051 20.0592C16.8245 20.5549 18.7941 20.3549 19.6231 17.9859C20.2912 16.0784 19.5899 14.9781 18.2118 14.2606C19.2154 14.0291 19.9714 13.3689 20.1731 12.0052ZM16.6635 16.9267C16.1888 18.8342 12.9771 17.803 11.9358 17.5444L12.7793 14.163C13.8206 14.4229 17.1596 14.9374 16.6635 16.9267ZM17.1386 11.9777C16.7055 13.7128 14.0323 12.8312 13.1652 12.6151L13.93 9.54824C14.7971 9.76437 17.5896 10.1677 17.1386 11.9777Z" fill="#3C3C48"/>
</svg>
