<svg width="96" height="89" viewBox="0 0 96 89" fill="none" xmlns="http://www.w3.org/2000/svg">
<path d="M64.685 14.8379H24.565C23.375 14.8379 22.27 14.8804 21.25 14.9229C11.1775 15.5179 8.5 19.2154 8.5 30.6904V33.1554C8.5 35.4929 10.4125 37.4054 12.75 37.4054H76.5C78.8375 37.4054 80.75 35.4929 80.75 33.1554V30.6904C80.75 18.0254 77.52 14.8379 64.685 14.8379Z" fill="url(#paint0_linear_313_5397)"/>
<path d="M12.75 43.7793C10.4125 43.7793 8.5 45.6918 8.5 48.0293V60.3968C8.5 73.0618 11.73 76.2493 24.565 76.2493H64.685C77.3075 76.2493 80.6225 73.1893 80.75 61.0768V48.0293C80.75 45.6918 78.8375 43.7793 76.5 43.7793H12.75ZM29.58 65.8793H22.3125C20.57 65.8793 19.125 64.4343 19.125 62.6918C19.125 60.9493 20.57 59.5043 22.3125 59.5043H29.6225C31.365 59.5043 32.81 60.9493 32.81 62.6918C32.81 64.4343 31.365 65.8793 29.58 65.8793ZM53.3375 65.8793H38.7175C36.975 65.8793 35.53 64.4343 35.53 62.6918C35.53 60.9493 36.975 59.5043 38.7175 59.5043H53.3375C55.08 59.5043 56.525 60.9493 56.525 62.6918C56.525 64.4343 55.1225 65.8793 53.3375 65.8793Z" fill="url(#paint1_linear_313_5397)"/>
<path d="M93.4998 43.6533V21.3833C93.4998 8.08078 85.8923 2.30078 74.4173 2.30078H36.4648C33.2348 2.30078 30.3448 2.76828 27.7948 3.74578C25.7973 4.46828 24.0123 5.53078 22.5673 6.93328C21.8023 7.65578 22.3973 8.84578 23.5023 8.84578H69.6998C79.2623 8.84578 86.9973 16.5808 86.9973 26.1433V56.6158C86.9973 57.6783 88.1448 58.2733 88.9098 57.5083C91.8423 54.4058 93.4998 49.8583 93.4998 43.6533Z" fill="url(#paint2_linear_313_5397)"/>
<defs>
<linearGradient id="paint0_linear_313_5397" x1="44.625" y1="14.8379" x2="44.625" y2="37.4054" gradientUnits="userSpaceOnUse">
<stop stop-color="white" stop-opacity="0.05"/>
<stop offset="1" stop-color="white" stop-opacity="0"/>
</linearGradient>
<linearGradient id="paint1_linear_313_5397" x1="44.625" y1="43.7793" x2="44.625" y2="76.2493" gradientUnits="userSpaceOnUse">
<stop stop-color="white" stop-opacity="0.05"/>
<stop offset="1" stop-color="white" stop-opacity="0"/>
</linearGradient>
<linearGradient id="paint2_linear_313_5397" x1="57.8613" y1="2.30078" x2="57.8613" y2="57.8543" gradientUnits="userSpaceOnUse">
<stop stop-color="white" stop-opacity="0.05"/>
<stop offset="1" stop-color="white" stop-opacity="0"/>
</linearGradient>
</defs>
</svg>
