<svg width="18" height="18" viewBox="0 0 18 18" fill="none" xmlns="http://www.w3.org/2000/svg">
<path fill-rule="evenodd" clip-rule="evenodd" d="M12.9037 14.019C13.2117 14.327 13.711 14.327 14.019 14.019C14.327 13.711 14.327 13.2116 14.019 12.9036L10.1154 9L14.019 5.09637C14.327 4.78838 14.327 4.28903 14.019 3.98104C13.711 3.67305 13.2117 3.67305 12.9037 3.98104L9.00002 7.88467L5.09634 3.98099C4.78834 3.673 4.28899 3.673 3.981 3.98099C3.67301 4.28898 3.67301 4.78833 3.981 5.09632L7.88469 9L3.98099 12.9037C3.673 13.2117 3.673 13.711 3.98099 14.019C4.28898 14.327 4.78834 14.327 5.09633 14.019L9.00002 10.1153L12.9037 14.019Z" fill="white"/>
</svg>
