<svg width="25" height="24" viewBox="0 0 25 24" fill="none" xmlns="http://www.w3.org/2000/svg">
<path d="M13.5 3.25C13.5 2.69772 13.0523 2.25 12.5 2.25C11.9477 2.25 11.5 2.69772 11.5 3.25H13.5ZM11.7929 21.4568C12.1834 21.8473 12.8166 21.8473 13.2071 21.4568L19.5711 15.0928C19.9616 14.7023 19.9616 14.0691 19.5711 13.6786C19.1805 13.2881 18.5474 13.2881 18.1569 13.6786L12.5 19.3354L6.84315 13.6786C6.45262 13.2881 5.81946 13.2881 5.42893 13.6786C5.03841 14.0691 5.03841 14.7023 5.42893 15.0928L11.7929 21.4568ZM11.5 3.25L11.5 20.7497H13.5L13.5 3.25H11.5Z" fill="white"/>
</svg>
