<svg width="41" height="40" viewBox="0 0 41 40" fill="none" xmlns="http://www.w3.org/2000/svg">
<path fill-rule="evenodd" clip-rule="evenodd" d="M3.42893 37.0711C6.35786 40 11.0719 40 20.5 40C29.9281 40 34.6421 40 37.5711 37.0711C40.5 34.1421 40.5 29.4281 40.5 20C40.5 10.5719 40.5 5.85786 37.5711 2.92893C34.6421 0 29.9281 0 20.5 0C11.0719 0 6.35786 0 3.42893 2.92893C0.5 5.85786 0.5 10.5719 0.5 20C0.5 29.4281 0.5 34.1421 3.42893 37.0711ZM11.6301 22.1387C11.0854 21.5145 10.1379 21.4501 9.5137 21.9949C8.88954 22.5396 8.82514 23.4871 9.36986 24.1113L15.3699 30.9863C15.781 31.4574 16.4412 31.624 17.0267 31.4045C17.6121 31.1849 18 30.6253 18 30V10C18 9.17157 17.3284 8.5 16.5 8.5C15.6716 8.5 15 9.17157 15 10V26L11.6301 22.1387ZM23.9733 8.59551C23.3879 8.81505 23 9.37473 23 10L23 30C23 30.8284 23.6716 31.5 24.5 31.5C25.3284 31.5 26 30.8284 26 30L26 14L29.3699 17.8613C29.9146 18.4855 30.8621 18.5499 31.4863 18.0051C32.1105 17.4604 32.1749 16.5129 31.6301 15.8887L25.6301 9.0137C25.219 8.54261 24.5588 8.37596 23.9733 8.59551Z" fill="#F64E2A"/>
</svg>
