<svg width="92" height="96" viewBox="0 0 92 96" fill="none" xmlns="http://www.w3.org/2000/svg">
<path d="M68 2.5H34C19.125 2.5 12.75 11 12.75 23.75V66.25C12.75 79 19.125 87.5 34 87.5H68C82.875 87.5 89.25 79 89.25 66.25V23.75C89.25 11 82.875 2.5 68 2.5ZM34 46.0625H51C52.7425 46.0625 54.1875 47.5075 54.1875 49.25C54.1875 50.9925 52.7425 52.4375 51 52.4375H34C32.2575 52.4375 30.8125 50.9925 30.8125 49.25C30.8125 47.5075 32.2575 46.0625 34 46.0625ZM68 69.4375H34C32.2575 69.4375 30.8125 67.9925 30.8125 66.25C30.8125 64.5075 32.2575 63.0625 34 63.0625H68C69.7425 63.0625 71.1875 64.5075 71.1875 66.25C71.1875 67.9925 69.7425 69.4375 68 69.4375ZM78.625 33.3125H70.125C63.665 33.3125 58.4375 28.085 58.4375 21.625V13.125C58.4375 11.3825 59.8825 9.9375 61.625 9.9375C63.3675 9.9375 64.8125 11.3825 64.8125 13.125V21.625C64.8125 24.5575 67.1925 26.9375 70.125 26.9375H78.625C80.3675 26.9375 81.8125 28.3825 81.8125 30.125C81.8125 31.8675 80.3675 33.3125 78.625 33.3125Z" fill="url(#paint0_linear_313_5423)"/>
<defs>
<linearGradient id="paint0_linear_313_5423" x1="51" y1="2.5" x2="51" y2="87.5" gradientUnits="userSpaceOnUse">
<stop offset="0.175" stop-color="white" stop-opacity="0.05"/>
<stop offset="1" stop-color="white" stop-opacity="0"/>
</linearGradient>
</defs>
</svg>
