<svg width="23" height="23" viewBox="0 0 23 23" fill="none" xmlns="http://www.w3.org/2000/svg">
<path d="M11.5 23C17.8513 23 23 17.8513 23 11.5C23 5.14873 17.8513 0 11.5 0C5.14873 0 0 5.14873 0 11.5C0 17.8513 5.14873 23 11.5 23Z" fill="#F64E2A"/>
<path d="M11.048 16.36C10.3547 16.3387 9.736 16.2747 9.192 16.168C8.648 16.0507 8.152 15.8907 7.704 15.688V13.624C8.14133 13.8373 8.66933 14.0347 9.288 14.216C9.90667 14.3867 10.4933 14.488 11.048 14.52V12.104C10.4293 11.8587 9.90133 11.624 9.464 11.4C9.03733 11.176 8.69067 10.9413 8.424 10.696C8.168 10.44 7.98133 10.1627 7.864 9.864C7.74667 9.55467 7.688 9.20267 7.688 8.808C7.688 8.27467 7.82667 7.816 8.104 7.432C8.392 7.03733 8.78667 6.72267 9.288 6.488C9.8 6.25333 10.3867 6.10933 11.048 6.056V4.856H12.12V6.024C12.7173 6.04533 13.2773 6.11467 13.8 6.232C14.3333 6.34933 14.8507 6.52 15.352 6.744L14.616 8.568C14.1893 8.38667 13.7573 8.248 13.32 8.152C12.8933 8.056 12.4933 7.992 12.12 7.96V10.264C12.696 10.4773 13.2453 10.712 13.768 10.968C14.2907 11.2133 14.712 11.528 15.032 11.912C15.3627 12.296 15.528 12.8027 15.528 13.432C15.528 14.2107 15.2453 14.8613 14.68 15.384C14.1147 15.9067 13.2613 16.2213 12.12 16.328V17.928H11.048V16.36ZM12.12 14.472C12.4827 14.408 12.7493 14.3013 12.92 14.152C13.0907 13.992 13.176 13.7893 13.176 13.544C13.176 13.3947 13.1333 13.2667 13.048 13.16C12.9733 13.0427 12.856 12.936 12.696 12.84C12.5467 12.7333 12.3547 12.6267 12.12 12.52V14.472ZM11.048 7.992C10.8347 8.024 10.6533 8.07733 10.504 8.152C10.3547 8.216 10.2373 8.30667 10.152 8.424C10.0773 8.53067 10.04 8.65867 10.04 8.808C10.04 8.95733 10.072 9.09067 10.136 9.208C10.2107 9.31467 10.3227 9.42133 10.472 9.528C10.6213 9.624 10.8133 9.72533 11.048 9.832V7.992Z" fill="white"/>
</svg>
