<svg width="96" height="96" viewBox="0 0 96 96" fill="none" xmlns="http://www.w3.org/2000/svg">
<path d="M63.1125 10.7879V26.9379H56.7375V10.7879C56.7375 9.64039 55.7175 9.08789 55.0375 9.08789C54.825 9.08789 54.6125 9.13039 54.4 9.21539L20.6975 21.9229C18.445 22.7729 17 24.8979 17 27.3204V30.1679C13.1325 33.0579 10.625 37.6904 10.625 42.9179V27.3204C10.625 22.2629 13.7275 17.7579 18.445 15.9729L52.19 3.22289C53.125 2.88289 54.1025 2.71289 55.0375 2.71289C59.2875 2.71289 63.1125 6.15539 63.1125 10.7879Z" fill="url(#paint0_linear_313_5418)"/>
<path d="M91.3749 55.625V59.875C91.3749 61.0225 90.4824 61.9575 89.2924 62H83.0874C80.8349 62 78.7949 60.3425 78.6249 58.1325C78.4974 56.815 79.0074 55.5825 79.8574 54.7325C80.6224 53.925 81.6849 53.5 82.8324 53.5H89.2499C90.4824 53.5425 91.3749 54.4775 91.3749 55.625Z" fill="url(#paint1_linear_313_5418)"/>
<path d="M82.79 49.0375H87.125C89.4625 49.0375 91.375 47.125 91.375 44.7875V42.9175C91.375 34.12 84.1925 26.9375 75.395 26.9375H26.605C22.9925 26.9375 19.6775 28.1275 17 30.1675C13.1325 33.0575 10.625 37.69 10.625 42.9175V71.52C10.625 80.3175 17.8075 87.5 26.605 87.5H75.395C84.1925 87.5 91.375 80.3175 91.375 71.52V70.7125C91.375 68.375 89.4625 66.4625 87.125 66.4625H83.4275C79.3475 66.4625 75.4375 63.955 74.375 60.0025C73.4825 56.7725 74.545 53.67 76.67 51.5875C78.2425 49.9725 80.41 49.0375 82.79 49.0375ZM59.5 48.1875H29.75C28.0075 48.1875 26.5625 46.7425 26.5625 45C26.5625 43.2575 28.0075 41.8125 29.75 41.8125H59.5C61.2425 41.8125 62.6875 43.2575 62.6875 45C62.6875 46.7425 61.2425 48.1875 59.5 48.1875Z" fill="url(#paint2_linear_313_5418)"/>
<defs>
<linearGradient id="paint0_linear_313_5418" x1="36.8688" y1="2.71289" x2="36.8688" y2="42.9179" gradientUnits="userSpaceOnUse">
<stop offset="0.07" stop-color="white" stop-opacity="0.05"/>
<stop offset="1" stop-color="white" stop-opacity="0"/>
</linearGradient>
<linearGradient id="paint1_linear_313_5418" x1="84.9902" y1="53.5" x2="84.9902" y2="62" gradientUnits="userSpaceOnUse">
<stop offset="0.07" stop-color="white" stop-opacity="0.05"/>
<stop offset="1" stop-color="white" stop-opacity="0"/>
</linearGradient>
<linearGradient id="paint2_linear_313_5418" x1="51" y1="26.9375" x2="51" y2="87.5" gradientUnits="userSpaceOnUse">
<stop offset="0.07" stop-color="white" stop-opacity="0.05"/>
<stop offset="1" stop-color="white" stop-opacity="0"/>
</linearGradient>
</defs>
</svg>
