<svg width="24" height="24" viewBox="0 0 24 24" fill="none" xmlns="http://www.w3.org/2000/svg">
<rect width="24" height="24" rx="8" fill="url(#paint0_linear_1825_10371)"/>
<path fill-rule="evenodd" clip-rule="evenodd" d="M16.8125 17.2505C16.4204 16.9178 15.8296 16.9178 15.4375 17.2505C15.0454 17.5832 14.4546 17.5832 14.0625 17.2505C13.6704 16.9178 13.0796 16.9178 12.6875 17.2505C12.2954 17.5832 11.7046 17.5832 11.3125 17.2505C10.9204 16.9178 10.3296 16.9178 9.9375 17.2505C9.54542 17.5832 8.95458 17.5832 8.5625 17.2505C8.17042 16.9178 7.57958 16.9178 7.1875 17.2505C6.92111 17.4765 6.5 17.296 6.5 16.9557V7.04425C6.5 6.70401 6.92111 6.52348 7.1875 6.74953C7.57958 7.08223 8.17042 7.08223 8.5625 6.74953C8.95458 6.41682 9.54542 6.41682 9.9375 6.74953C10.3296 7.08223 10.9204 7.08223 11.3125 6.74953C11.7046 6.41682 12.2954 6.41682 12.6875 6.74953C13.0796 7.08223 13.6704 7.08223 14.0625 6.74953C14.4546 6.41682 15.0454 6.41682 15.4375 6.74953C15.8296 7.08223 16.4204 7.08223 16.8125 6.74953C17.0789 6.52348 17.5 6.70401 17.5 7.04425V16.9557C17.5 17.296 17.0789 17.4765 16.8125 17.2505ZM8.79167 12C8.79167 11.7469 8.99687 11.5417 9.25 11.5417H14.75C15.0031 11.5417 15.2083 11.7469 15.2083 12C15.2083 12.2531 15.0031 12.4583 14.75 12.4583H9.25C8.99687 12.4583 8.79167 12.2531 8.79167 12ZM9.25 9.40278C8.99687 9.40278 8.79167 9.60798 8.79167 9.86111C8.79167 10.1142 8.99687 10.3194 9.25 10.3194H14.75C15.0031 10.3194 15.2083 10.1142 15.2083 9.86111C15.2083 9.60798 15.0031 9.40278 14.75 9.40278H9.25ZM8.79167 14.1389C8.79167 13.8858 8.99687 13.6806 9.25 13.6806H14.75C15.0031 13.6806 15.2083 13.8858 15.2083 14.1389C15.2083 14.392 15.0031 14.5972 14.75 14.5972H9.25C8.99687 14.5972 8.79167 14.392 8.79167 14.1389Z" fill="white"/>
<defs>
<linearGradient id="paint0_linear_1825_10371" x1="2.5" y1="-9.80993e-08" x2="21" y2="26" gradientUnits="userSpaceOnUse">
<stop stop-color="#F66E2A"/>
<stop offset="1" stop-color="#D23918"/>
</linearGradient>
</defs>
</svg>
