<svg width="16" height="16" viewBox="0 0 16 16" fill="none" xmlns="http://www.w3.org/2000/svg">
<path fill-rule="evenodd" clip-rule="evenodd" d="M11.6872 2.31295C11.492 2.11769 11.1754 2.11769 10.9801 2.31295C10.7849 2.50821 10.7849 2.8248 10.9801 3.02006L12.1266 4.1665H6.00034C3.88325 4.1665 2.16701 5.88275 2.16701 7.99984V8.6665C2.16701 8.94265 2.39086 9.1665 2.66701 9.1665C2.94315 9.1665 3.16701 8.94265 3.16701 8.6665V7.99984C3.16701 6.43503 4.43553 5.1665 6.00034 5.1665H13.3337C13.5359 5.1665 13.7182 5.04468 13.7956 4.85785C13.873 4.67101 13.8302 4.45595 13.6872 4.31295L11.6872 2.31295ZM4.31345 13.6867C4.50872 13.882 4.8253 13.882 5.02056 13.6867C5.21582 13.4915 5.21582 13.1749 5.02056 12.9796L3.87411 11.8332H10.0003C12.1174 11.8332 13.8337 10.1169 13.8337 7.99984V7.33317C13.8337 7.05703 13.6098 6.83317 13.3337 6.83317C13.0575 6.83317 12.8337 7.05703 12.8337 7.33317V7.99984C12.8337 9.56464 11.5651 10.8332 10.0003 10.8332H2.66701C2.46478 10.8332 2.28246 10.955 2.20507 11.1418C2.12768 11.3287 2.17045 11.5437 2.31345 11.6867L4.31345 13.6867Z" fill="white"/>
</svg>
