<svg width="20" height="20" viewBox="0 0 20 20" fill="none" xmlns="http://www.w3.org/2000/svg">
<path d="M3.33338 3.33337L16.6667 16.6667M11.6667 11.8635C11.2244 12.2593 10.6403 12.5 10.0001 12.5C8.61934 12.5 7.50005 11.3808 7.50005 10C7.50005 9.35975 7.74076 8.77567 8.13663 8.33337M16.3399 13.0065C16.816 12.5919 17.2419 12.175 17.6086 11.7891C18.575 10.7724 18.575 9.22768 17.6086 8.21096C15.9788 6.49615 13.1796 4.16671 10.0001 4.16671C9.25724 4.16671 8.53519 4.29384 7.84397 4.51057M5.41672 5.66953C4.20125 6.44541 3.16475 7.39736 2.39147 8.21096C1.42513 9.22768 1.42513 10.7724 2.39147 11.7891C4.02129 13.5039 6.82045 15.8334 10.0001 15.8334C11.5568 15.8334 13.0223 15.275 14.3041 14.5037" stroke="white" stroke-width="1.2" stroke-linecap="round"/>
</svg>
