<svg width="25" height="18" viewBox="0 0 25 18" fill="none" xmlns="http://www.w3.org/2000/svg">
<path fill-rule="evenodd" clip-rule="evenodd" d="M17.486 10.6801C17.78 10.9726 17.78 11.4526 17.486 11.7451C17.1935 12.0376 16.718 12.0376 16.4247 11.7451L14.7455 10.0651L13.0445 11.7675C12.749 12.06 12.2697 12.06 11.9742 11.7675C11.6787 11.4675 11.6787 10.9876 11.9742 10.6951L13.6752 8.99258L11.996 7.32009C11.7028 7.02759 11.7028 6.54756 11.996 6.25506C12.2893 5.96256 12.7648 5.96256 13.0573 6.25506L14.7365 7.93505L16.4615 6.21011C16.7578 5.91761 17.2363 5.91761 17.5318 6.21011C17.828 6.51011 17.828 6.98256 17.5318 7.28256L15.8068 9.00759L17.486 10.6801ZM21.4977 0.750086H8.03902C7.82902 0.735086 7.61449 0.802608 7.45399 0.960108L0.714478 8.41506C0.556228 8.57256 0.487987 8.78257 0.499237 8.98507C0.487987 9.19507 0.556228 9.40509 0.714478 9.56259L7.45399 17.0175C7.60099 17.16 7.793 17.2351 7.985 17.2351V17.2501H21.4977C23.156 17.2501 24.5007 15.9076 24.5007 14.2501V3.75009C24.5007 2.09259 23.156 0.750086 21.4977 0.750086Z" fill="white"/>
</svg>
