<svg width="98" height="98" viewBox="0 0 98 98" fill="none" xmlns="http://www.w3.org/2000/svg">
<path d="M71.4 4.5H60.35C46.75 4.5 38.25 13 38.25 26.6V43.8125H57.12L48.3225 35.015C47.685 34.3775 47.3875 33.57 47.3875 32.7625C47.3875 31.955 47.685 31.1475 48.3225 30.51C49.555 29.2775 51.595 29.2775 52.8275 30.51L67.065 44.7475C68.2975 45.98 68.2975 48.02 67.065 49.2525L52.8275 63.49C51.595 64.7225 49.555 64.7225 48.3225 63.49C47.09 62.2575 47.09 60.2175 48.3225 58.985L57.12 50.1875H38.25V67.4C38.25 81 46.75 89.5 60.35 89.5H71.3575C84.9575 89.5 93.4575 81 93.4575 67.4V26.6C93.5 13 85 4.5 71.4 4.5Z" fill="url(#paint0_linear_313_5412)"/>
<path d="M11.6875 43.8125C9.945 43.8125 8.5 45.2575 8.5 47C8.5 48.7425 9.945 50.1875 11.6875 50.1875H38.25V43.8125H11.6875Z" fill="url(#paint1_linear_313_5412)"/>
<defs>
<linearGradient id="paint0_linear_313_5412" x1="65.8538" y1="4.5" x2="65.8538" y2="89.5" gradientUnits="userSpaceOnUse">
<stop offset="0.31" stop-color="white" stop-opacity="0.05"/>
<stop offset="1" stop-color="white" stop-opacity="0"/>
</linearGradient>
<linearGradient id="paint1_linear_313_5412" x1="23.375" y1="43.8125" x2="23.375" y2="50.1875" gradientUnits="userSpaceOnUse">
<stop offset="0.31" stop-color="white" stop-opacity="0.05"/>
<stop offset="1" stop-color="white" stop-opacity="0"/>
</linearGradient>
</defs>
</svg>
