<svg width="54" height="35" viewBox="0 0 54 35" fill="none" xmlns="http://www.w3.org/2000/svg">
<path d="M26.9988 3.74261C28.9865 5.37868 30.5932 7.46748 31.6973 9.85088C32.8015 12.2343 33.3741 14.8499 33.3718 17.4996C33.3733 20.1485 32.8004 22.763 31.6963 25.1455C30.5921 27.5279 28.9858 29.6159 26.9988 31.2514C25.0114 29.6156 23.4049 27.5272 22.3008 25.1443C21.1966 22.7614 20.6238 20.1463 20.6257 17.497C20.6238 14.8477 21.1966 12.2327 22.3008 9.84973C23.4049 7.4668 25.0114 5.37842 26.9988 3.74261ZM24.863 2.24437C22.759 4.12765 21.07 6.46755 19.9129 9.10234C18.7557 11.7371 18.158 14.604 18.161 17.5047C18.1581 20.4042 18.7554 23.2698 19.9117 25.9037C21.0679 28.5375 22.7556 30.8768 24.8581 32.76C22.3181 34.2551 19.4493 35.0271 16.5366 34.9993C13.624 34.9714 10.769 34.1447 8.25547 32.6012C5.74196 31.0578 3.65746 28.8514 2.20918 26.2013C0.760892 23.5513 -0.000736626 20.5499 5.34601e-07 17.4956C0.000737696 14.4412 0.763815 11.4402 2.21338 8.79098C3.66294 6.14171 5.74851 3.93641 8.26276 2.39429C10.777 0.852174 13.6324 0.0269494 16.5451 0.000648955C19.4577 -0.0256515 22.3238 0.747888 24.863 2.24437ZM29.1395 32.76C31.242 30.8768 32.9296 28.5375 34.0859 25.9037C35.2421 23.2698 35.8395 20.4042 35.8366 17.5047C35.8396 14.604 35.2418 11.7371 34.0847 9.10234C32.9275 6.46755 31.2386 4.12765 29.1346 2.24437C31.6738 0.747888 34.5423 -0.0256515 37.455 0.000648955C40.3676 0.0269494 43.223 0.852174 45.7372 2.39429C48.2515 3.93641 50.3371 6.14171 51.7866 8.79098C53.2362 11.4402 53.9993 14.4412 54 17.4956C54.0007 20.5499 53.2391 23.5513 51.7908 26.2013C50.3425 28.8514 48.258 31.0578 45.7445 32.6012C43.231 34.1447 40.376 34.9714 37.4634 34.9993C34.5508 35.0271 31.6819 34.2551 29.1419 32.76H29.1395Z" fill="white"/>
</svg>
