<svg width="20" height="20" viewBox="0 0 20 20" fill="none" xmlns="http://www.w3.org/2000/svg">
<path fill-rule="evenodd" clip-rule="evenodd" d="M16.6663 5.00016C16.6663 4.07969 15.9201 3.3335 14.9997 3.3335H8.33301C7.41253 3.3335 6.66634 4.07969 6.66634 5.00016C6.66634 5.92034 7.41205 6.66634 8.33211 6.66683L4.99968 6.66683C4.0792 6.66683 3.33301 7.41302 3.33301 8.3335C3.33301 9.25397 4.0792 10.0002 4.99968 10.0002H8.33121C7.41156 10.0011 6.66634 10.747 6.66634 11.6668C6.66634 12.5873 7.41253 13.3335 8.33301 13.3335H5.83301C4.91253 13.3335 4.16634 14.0797 4.16634 15.0002C4.16634 15.9206 4.91253 16.6668 5.83301 16.6668H12.4997C13.4201 16.6668 14.1663 15.9206 14.1663 15.0002C14.1663 14.0797 13.4201 13.3335 12.4997 13.3335H14.9997C15.9201 13.3335 16.6663 12.5873 16.6663 11.6668C16.6663 10.7464 15.9201 10.0002 14.9997 10.0002H11.6679C12.5877 9.99932 13.333 9.25345 13.333 8.3335C13.333 7.41323 12.5872 6.66717 11.667 6.66683H14.9997C15.9201 6.66683 16.6663 5.92064 16.6663 5.00016Z" fill="white"/>
</svg>
