<svg width="40" height="40" viewBox="0 0 40 40" fill="none" xmlns="http://www.w3.org/2000/svg">
<path d="M25.0003 37.9173H15.0003C7.65033 37.9173 5.41699 35.684 5.41699 28.334V11.6673C5.41699 4.31732 7.65033 2.08398 15.0003 2.08398H25.0003C32.3503 2.08398 34.5837 4.31732 34.5837 11.6673V28.334C34.5837 35.684 32.3503 37.9173 25.0003 37.9173ZM15.0003 4.58398C9.03366 4.58398 7.91699 5.71732 7.91699 11.6673V28.334C7.91699 34.284 9.03366 35.4173 15.0003 35.4173H25.0003C30.967 35.4173 32.0837 34.284 32.0837 28.334V11.6673C32.0837 5.71732 30.967 4.58398 25.0003 4.58398H15.0003Z" fill="#292D32"/>
<path d="M23.3337 10.416H16.667C15.9837 10.416 15.417 9.84935 15.417 9.16602C15.417 8.48268 15.9837 7.91602 16.667 7.91602H23.3337C24.017 7.91602 24.5837 8.48268 24.5837 9.16602C24.5837 9.84935 24.017 10.416 23.3337 10.416Z" fill="#292D32"/>
<path d="M20.0003 33.1003C17.8837 33.1003 16.167 31.3836 16.167 29.2669C16.167 27.1503 17.8837 25.4336 20.0003 25.4336C22.117 25.4336 23.8337 27.1503 23.8337 29.2669C23.8337 31.3836 22.117 33.1003 20.0003 33.1003ZM20.0003 27.9169C19.267 27.9169 18.667 28.5169 18.667 29.2503C18.667 29.9836 19.267 30.5836 20.0003 30.5836C20.7337 30.5836 21.3337 29.9836 21.3337 29.2503C21.3337 28.5169 20.7337 27.9169 20.0003 27.9169Z" fill="#292D32"/>
</svg>
