<svg width="100" height="101" viewBox="0 0 100 101" fill="none" xmlns="http://www.w3.org/2000/svg">
<path d="M43.5625 41.6275C43.5625 43.9225 44.2 44.2625 45.645 44.7725L47.8125 45.5375V38.3125H46.5375C44.9225 38.3125 43.5625 39.8 43.5625 41.6275Z" fill="url(#paint0_linear_313_5392)"/>
<path d="M54.1875 61.6879H55.4625C57.12 61.6879 58.4375 60.2004 58.4375 58.3729C58.4375 56.0779 57.8 55.7379 56.355 55.2279L54.1875 54.4629V61.6879Z" fill="url(#paint1_linear_313_5392)"/>
<path d="M83.215 22.29L74.5025 31.0025C73.865 31.64 73.0575 31.9375 72.25 31.9375C71.4425 31.9375 70.635 31.64 69.9975 31.0025C68.765 29.77 68.765 27.73 69.9975 26.4975L78.71 17.785C71.23 11.41 61.5825 7.5 51 7.5C27.54 7.5 8.5 26.54 8.5 50C8.5 73.46 27.54 92.5 51 92.5C74.46 92.5 93.5 73.46 93.5 50C93.5 39.4175 89.59 29.77 83.215 22.29ZM58.4375 49.235C61.1575 50.2125 64.8125 52.1675 64.8125 58.415C64.8125 63.7275 60.605 68.105 55.4625 68.105H54.1875V69.1675C54.1875 70.91 52.7425 72.355 51 72.355C49.2575 72.355 47.8125 70.91 47.8125 69.1675V68.105H47.4725C41.82 68.105 37.1875 63.345 37.1875 57.48C37.1875 55.695 38.6325 54.25 40.375 54.25C42.1175 54.25 43.5625 55.695 43.5625 57.4375C43.5625 59.775 45.305 61.6875 47.4725 61.6875H47.8125V52.2525L43.5625 50.765C40.8425 49.7875 37.1875 47.8325 37.1875 41.585C37.1875 36.2725 41.395 31.895 46.5375 31.895H47.8125V30.875C47.8125 29.1325 49.2575 27.6875 51 27.6875C52.7425 27.6875 54.1875 29.1325 54.1875 30.875V31.9375H54.5275C60.18 31.9375 64.8125 36.6975 64.8125 42.5625C64.8125 44.305 63.3675 45.75 61.625 45.75C59.8825 45.75 58.4375 44.305 58.4375 42.5625C58.4375 40.225 56.695 38.3125 54.5275 38.3125H54.1875V47.7475L58.4375 49.235Z" fill="url(#paint2_linear_313_5392)"/>
<path d="M96.4325 6.2675C96.0925 5.5025 95.4975 4.865 94.69 4.525C94.3075 4.3975 93.925 4.3125 93.5 4.3125H76.5C74.7575 4.3125 73.3125 5.7575 73.3125 7.5C73.3125 9.2425 74.7575 10.6875 76.5 10.6875H85.8075L78.71 17.785C80.325 19.1875 81.8125 20.675 83.215 22.29L90.3125 15.1925V24.5C90.3125 26.2425 91.7575 27.6875 93.5 27.6875C95.2425 27.6875 96.6875 26.2425 96.6875 24.5V7.5C96.6875 7.075 96.6025 6.6925 96.4325 6.2675Z" fill="url(#paint3_linear_313_5392)"/>
<defs>
<linearGradient id="paint0_linear_313_5392" x1="45.6875" y1="38.3125" x2="45.6875" y2="45.5375" gradientUnits="userSpaceOnUse">
<stop stop-color="white" stop-opacity="0.05"/>
<stop offset="1" stop-color="white" stop-opacity="0"/>
</linearGradient>
<linearGradient id="paint1_linear_313_5392" x1="56.3125" y1="54.4629" x2="56.3125" y2="61.6879" gradientUnits="userSpaceOnUse">
<stop stop-color="white" stop-opacity="0.05"/>
<stop offset="1" stop-color="white" stop-opacity="0"/>
</linearGradient>
<linearGradient id="paint2_linear_313_5392" x1="51" y1="7.5" x2="51" y2="92.5" gradientUnits="userSpaceOnUse">
<stop stop-color="white" stop-opacity="0.05"/>
<stop offset="1" stop-color="white" stop-opacity="0"/>
</linearGradient>
<linearGradient id="paint3_linear_313_5392" x1="85" y1="4.3125" x2="85" y2="27.6875" gradientUnits="userSpaceOnUse">
<stop stop-color="white" stop-opacity="0.05"/>
<stop offset="1" stop-color="white" stop-opacity="0"/>
</linearGradient>
</defs>
</svg>
