<svg width="30" height="30" viewBox="0 0 30 30" fill="none" xmlns="http://www.w3.org/2000/svg">
<path d="M14.2316 22.4693C14.2161 22.5268 14.2006 22.5842 14.185 22.6417C14.4758 22.788 14.7592 22.9509 15.059 23.0776C17.2021 23.9809 19.3469 24.8779 21.4942 25.7717C21.7172 25.8646 21.9516 25.948 22.1901 25.9865C22.6327 26.0581 22.9423 25.841 22.9897 25.409C23.0166 25.1682 22.9807 24.9117 22.9243 24.6733C22.4923 22.8203 22.0316 20.9735 21.6151 19.1174C21.3537 17.9552 21.6412 16.8906 22.4776 16.0141C24.4949 13.9014 26.5401 11.8123 28.5697 9.71065C28.7968 9.47538 29.1259 9.21809 28.9503 8.86873C28.7658 8.50284 28.3484 8.63189 28.0266 8.68225C24.8992 9.16852 21.7727 9.6658 18.6478 10.1654C18.4305 10.2001 18.2214 10.2811 18.0083 10.3401C18.0091 10.385 18.0107 10.429 18.0115 10.4739C18.2125 10.5195 18.4118 10.5833 18.6151 10.6061C19.547 10.7123 20.4798 10.8044 21.4125 10.9074C21.8193 10.9523 22.2815 10.968 22.4343 11.415C22.587 11.8603 22.226 12.1428 21.9328 12.415C20.8735 13.3962 19.8076 14.3719 18.745 15.3492C17.8531 16.1699 17.6089 17.3249 18.1038 18.4092C18.5522 19.3928 19.0129 20.3716 19.4572 21.3567C19.8541 22.238 19.3812 22.8722 18.3995 22.7809C17.2217 22.6716 16.0448 22.5488 14.8662 22.4434C14.6579 22.4245 14.444 22.4591 14.2324 22.4686L14.2316 22.4693ZM10.7048 16.14C10.7653 16.1274 10.8249 16.1148 10.8853 16.1022C10.9131 15.889 10.9548 15.6765 10.9662 15.4625C11.0299 14.2862 11.0373 13.1043 11.163 11.9335C11.2586 11.0467 11.9202 10.6478 12.8317 10.8225C14.2169 11.0884 15.5972 11.3835 16.9824 11.6487C17.2054 11.6911 17.448 11.6392 17.6816 11.6313C17.546 11.4393 17.4472 11.2057 17.2699 11.0632C16.133 10.1473 14.9781 9.25271 13.8298 8.34941C12.1342 7.01571 10.4435 5.67571 8.73973 4.35066C8.51186 4.17284 8.21946 3.84236 7.93768 4.08707C7.76861 4.23342 7.74165 4.64888 7.80536 4.90854C8.68011 8.47452 9.58017 12.035 10.4802 15.5955C10.5276 15.7835 10.6281 15.959 10.704 16.1407L10.7048 16.14ZM9.41927 15.9779C9.38088 15.9574 9.34331 15.937 9.30493 15.9173C9.15791 16.0353 8.99619 16.1407 8.86469 16.2737C6.71499 18.4446 4.56856 20.6179 2.42458 22.7935C2.29471 22.9257 2.17056 23.0713 2.08072 23.2302C1.90185 23.5473 2.02518 23.7771 2.40171 23.8023C2.62795 23.8172 2.86154 23.7739 3.08697 23.7314C5.4335 23.2908 7.78004 22.847 10.1258 22.4001C11.591 22.1208 13.0587 21.8509 14.515 21.5338C14.7666 21.4787 15.0533 21.2505 15.1692 21.0271C15.3252 20.7296 15.0884 20.4479 14.8425 20.2465C14.0854 19.628 13.3217 19.0182 12.5523 18.4139C12.4413 18.3266 12.2861 18.2912 12.0411 18.1826C12.108 18.4745 12.1317 18.6524 12.1913 18.8184C12.3416 19.2393 12.5254 19.6493 12.6618 20.0734C12.8202 20.566 12.6095 20.8374 12.0754 20.8484C11.4906 20.861 10.9041 20.8256 10.321 20.8595C9.06072 20.9334 8.587 19.9743 8.80344 19.071C8.99946 18.255 9.18078 17.4351 9.35638 16.6144C9.40049 16.4067 9.39967 16.1903 9.41927 15.9779Z" fill="white"/>
</svg>
