<svg width="20" height="20" viewBox="0 0 20 20" fill="none" xmlns="http://www.w3.org/2000/svg">
<path fill-rule="evenodd" clip-rule="evenodd" d="M3.45801 1.6665C2.35344 1.6665 1.45801 2.56193 1.45801 3.6665V6.33317C1.45801 7.43774 2.35344 8.33317 3.45801 8.33317H7.79134C8.89591 8.33317 9.79134 7.43774 9.79134 6.33317V3.6665C9.79134 2.56193 8.89591 1.6665 7.79134 1.6665H3.45801ZM11.7913 11.6665C10.6868 11.6665 9.79134 12.5619 9.79134 13.6665V16.3332C9.79134 17.4377 10.6868 18.3332 11.7913 18.3332H16.1247C17.2292 18.3332 18.1247 17.4377 18.1247 16.3332V13.6665C18.1247 12.5619 17.2292 11.6665 16.1247 11.6665H11.7913ZM16.961 5.62484L16.3612 6.22456C16.1172 6.46864 16.1172 6.86437 16.3612 7.10845C16.6053 7.35252 17.001 7.35252 17.2451 7.10845L18.3225 6.03103C18.8921 5.46152 18.8921 4.53816 18.3225 3.96864L17.2451 2.89123C17.001 2.64715 16.6053 2.64715 16.3612 2.89123C16.1172 3.13531 16.1172 3.53103 16.3612 3.77511L16.961 4.37484H13.1247C12.7795 4.37484 12.4997 4.65466 12.4997 4.99984C12.4997 5.34502 12.7795 5.62484 13.1247 5.62484H16.961ZM3.22144 16.2246L2.62171 15.6248H6.45801C6.80319 15.6248 7.08301 15.345 7.08301 14.9998C7.08301 14.6547 6.80319 14.3748 6.45801 14.3748H2.62171L3.22144 13.7751C3.46552 13.531 3.46552 13.1353 3.22144 12.8912C2.97736 12.6472 2.58163 12.6472 2.33755 12.8912L1.26014 13.9686C0.690628 14.5382 0.69063 15.4615 1.26014 16.031L2.33756 17.1084C2.58163 17.3525 2.97736 17.3525 3.22144 17.1084C3.46552 16.8644 3.46552 16.4686 3.22144 16.2246Z" fill="white"/>
</svg>
