<svg width="24" height="24" viewBox="0 0 24 24" fill="none" xmlns="http://www.w3.org/2000/svg">
<rect width="24" height="24" rx="8" fill="url(#paint0_linear_1825_10374)"/>
<g clip-path="url(#clip0_1825_10374)">
<path d="M15.6755 10.5999H12.3505V11.8249C12.3505 12.6934 11.6439 13.3999 10.7755 13.3999C9.90706 13.3999 9.2005 12.6934 9.2005 11.8249V9.16492L7.78081 10.018C7.35862 10.2696 7.1005 10.7268 7.1005 11.2168V12.2515L5.3505 13.2621C5.01581 13.4546 4.89987 13.8834 5.09456 14.218L6.84456 17.2499C7.03706 17.5846 7.46581 17.6984 7.8005 17.5059L10.0624 16.1999H13.0505C13.8227 16.1999 14.4505 15.5721 14.4505 14.7999H14.8005C15.1877 14.7999 15.5005 14.4871 15.5005 14.0999V12.6999H15.6755C15.9664 12.6999 16.2005 12.4659 16.2005 12.1749V11.1249C16.2005 10.834 15.9664 10.5999 15.6755 10.5999ZM18.9064 9.78179L17.1564 6.74992C16.9639 6.41523 16.5352 6.30148 16.2005 6.49398L13.9386 7.79992H11.703C11.4405 7.79992 11.1846 7.87429 10.9614 8.0121L10.2286 8.46929C10.023 8.59617 9.9005 8.82148 9.9005 9.0621V11.8249C9.9005 12.3084 10.2921 12.6999 10.7755 12.6999C11.2589 12.6999 11.6505 12.3084 11.6505 11.8249V9.89992H15.6755C16.3514 9.89992 16.9005 10.449 16.9005 11.1249V11.7484L18.6505 10.7377C18.9852 10.543 19.0989 10.1165 18.9064 9.78179Z" fill="white"/>
</g>
<defs>
<linearGradient id="paint0_linear_1825_10374" x1="2.5" y1="-9.80993e-08" x2="21" y2="26" gradientUnits="userSpaceOnUse">
<stop stop-color="#2A31F6"/>
<stop offset="1" stop-color="#050BB5"/>
</linearGradient>
<clipPath id="clip0_1825_10374">
<rect width="14" height="14" fill="white" transform="translate(5 5)"/>
</clipPath>
</defs>
</svg>
