<svg width="20" height="20" viewBox="0 0 20 20" fill="none" xmlns="http://www.w3.org/2000/svg">
<path d="M9.42674 6.21332C9.84316 6.99716 10.4561 7.9878 11.2344 8.76605C12.0125 9.54417 13.0024 10.1563 13.7861 10.5727L8.71971 15.6391C8.40535 15.9534 7.99763 16.1573 7.5576 16.2202L4.50584 16.6557C3.82794 16.7523 3.24688 16.1715 3.34373 15.4936L3.78025 12.4428C3.84313 12.0027 4.04692 11.5941 4.36131 11.2797L9.42674 6.21332ZM11.706 3.935C12.5084 3.13286 13.8089 3.13292 14.6113 3.935L16.0644 5.38812C16.8669 6.19059 16.8669 7.4919 16.0644 8.29437L14.7763 9.58246C14.6754 9.53245 14.5691 9.47834 14.459 9.42035C13.7164 9.0294 12.8344 8.48036 12.1767 7.82269C11.5192 7.16511 10.9709 6.2839 10.5801 5.54144C10.522 5.4311 10.468 5.32423 10.4179 5.22309L11.706 3.935Z" fill="white"/>
</svg>
