<svg width="94" height="95" viewBox="0 0 94 95" fill="none" xmlns="http://www.w3.org/2000/svg">
<path d="M38.25 1.5C27.115 1.5 18.0625 10.5525 18.0625 21.6875C18.0625 32.61 26.605 41.45 37.74 41.8325C38.08 41.79 38.42 41.79 38.675 41.8325C38.76 41.8325 38.8025 41.8325 38.8875 41.8325C38.93 41.8325 38.93 41.8325 38.9725 41.8325C49.8525 41.45 58.395 32.61 58.4375 21.6875C58.4375 10.5525 49.385 1.5 38.25 1.5Z" fill="url(#paint0_linear_313_5387)"/>
<path d="M59.8401 53.1377C47.9826 45.2327 28.6451 45.2327 16.7026 53.1377C11.3051 56.7502 8.33008 61.6377 8.33008 66.8652C8.33008 72.0927 11.3051 76.9377 16.6601 80.5077C22.6101 84.5027 30.4301 86.5002 38.2501 86.5002C46.0701 86.5002 53.8901 84.5027 59.8401 80.5077C65.1951 76.8952 68.1701 72.0502 68.1701 66.7802C68.1276 61.5527 65.1951 56.7077 59.8401 53.1377Z" fill="url(#paint1_linear_313_5387)"/>
<path d="M84.9578 24.1949C85.6378 32.4399 79.7728 39.6649 71.6553 40.6424C71.6128 40.6424 71.6128 40.6424 71.5703 40.6424H71.4428C71.1878 40.6424 70.9328 40.6424 70.7203 40.7274C66.5978 40.9399 62.8153 39.6224 59.9678 37.1999C64.3453 33.2899 66.8528 27.4249 66.3428 21.0499C66.0453 17.6074 64.8553 14.4624 63.0703 11.7849C64.6853 10.9774 66.5553 10.4674 68.4678 10.2974C76.7978 9.57494 84.2353 15.7799 84.9578 24.1949Z" fill="url(#paint2_linear_313_5387)"/>
<path d="M93.457 63.5072C93.117 67.6297 90.482 71.1997 86.062 73.6222C81.812 75.9597 76.457 77.0647 71.1445 76.9372C74.2045 74.1747 75.9895 70.7322 76.3295 67.0772C76.7545 61.8072 74.247 56.7497 69.232 52.7122C66.3845 50.4597 63.0695 48.6747 59.457 47.3572C68.8495 44.6372 80.6645 46.4647 87.932 52.3297C91.842 55.4747 93.8395 59.4272 93.457 63.5072Z" fill="url(#paint3_linear_313_5387)"/>
<defs>
<linearGradient id="paint0_linear_313_5387" x1="38.25" y1="1.5" x2="38.25" y2="41.8325" gradientUnits="userSpaceOnUse">
<stop offset="0.3" stop-color="white" stop-opacity="0.05"/>
<stop offset="1" stop-color="white" stop-opacity="0"/>
</linearGradient>
<linearGradient id="paint1_linear_313_5387" x1="38.2501" y1="47.209" x2="38.2501" y2="86.5002" gradientUnits="userSpaceOnUse">
<stop offset="0.3" stop-color="white" stop-opacity="0.05"/>
<stop offset="1" stop-color="white" stop-opacity="0"/>
</linearGradient>
<linearGradient id="paint2_linear_313_5387" x1="72.4896" y1="10.2402" x2="72.4896" y2="40.7497" gradientUnits="userSpaceOnUse">
<stop offset="0.3" stop-color="white" stop-opacity="0.05"/>
<stop offset="1" stop-color="white" stop-opacity="0"/>
</linearGradient>
<linearGradient id="paint3_linear_313_5387" x1="76.4802" y1="46.123" x2="76.4802" y2="76.9471" gradientUnits="userSpaceOnUse">
<stop offset="0.3" stop-color="white" stop-opacity="0.05"/>
<stop offset="1" stop-color="white" stop-opacity="0"/>
</linearGradient>
</defs>
</svg>
