<svg width="88" height="96" viewBox="0 0 88 96" fill="none" xmlns="http://www.w3.org/2000/svg">
<path d="M82.875 9.5975C82.875 9.555 82.875 9.5125 82.79 9.47C81.855 8.28 80.6225 7.6425 79.1775 7.6425C76.925 7.6425 74.205 9.13 71.2725 12.275C67.7875 16.015 62.4325 15.7175 59.3725 11.6375L55.08 5.9425C53.38 3.6475 51.1275 2.5 48.875 2.5C46.6225 2.5 44.37 3.6475 42.67 5.9425L38.335 11.68C35.3175 15.7175 30.005 16.015 26.52 12.3175L26.4775 12.275C21.675 7.1325 17.3825 6.3675 14.96 9.47C14.875 9.5125 14.875 9.555 14.875 9.5975C13.345 12.87 12.75 17.46 12.75 23.92V66.08C12.75 72.54 13.345 77.13 14.875 80.4025C14.875 80.445 14.9175 80.53 14.96 80.5725C17.425 83.6325 21.675 82.8675 26.4775 77.725L26.52 77.6825C30.005 73.985 35.3175 74.2825 38.335 78.32L42.67 84.0575C44.37 86.3525 46.6225 87.5 48.875 87.5C51.1275 87.5 53.38 86.3525 55.08 84.0575L59.3725 78.3625C62.4325 74.2825 67.7875 73.985 71.2725 77.725C74.205 80.87 76.925 82.3575 79.1775 82.3575C80.6225 82.3575 81.855 81.7625 82.79 80.5725C82.8325 80.53 82.875 80.445 82.875 80.4025C84.405 77.13 85 72.54 85 66.08V23.92C85 17.46 84.405 12.87 82.875 9.5975ZM59.5 55.625H34C32.2575 55.625 30.8125 54.18 30.8125 52.4375C30.8125 50.695 32.2575 49.25 34 49.25H59.5C61.2425 49.25 62.6875 50.695 62.6875 52.4375C62.6875 54.18 61.2425 55.625 59.5 55.625ZM68 40.75H34C32.2575 40.75 30.8125 39.305 30.8125 37.5625C30.8125 35.82 32.2575 34.375 34 34.375H68C69.7425 34.375 71.1875 35.82 71.1875 37.5625C71.1875 39.305 69.7425 40.75 68 40.75Z" fill="url(#paint0_linear_313_5407)"/>
<defs>
<linearGradient id="paint0_linear_313_5407" x1="48.875" y1="2.5" x2="48.875" y2="87.5" gradientUnits="userSpaceOnUse">
<stop offset="0.375" stop-color="white" stop-opacity="0.05"/>
<stop offset="1" stop-color="white" stop-opacity="0"/>
</linearGradient>
</defs>
</svg>
