<svg width="40" height="40" viewBox="0 0 40 40" fill="none" xmlns="http://www.w3.org/2000/svg">
<g clip-path="url(#clip0_313_5528)">
<path d="M20 40C31.0457 40 40 31.0457 40 20C40 8.9543 31.0457 0 20 0C8.9543 0 0 8.9543 0 20C0 31.0457 8.9543 40 20 40Z" fill="#F0F0F0"/>
<path d="M38.756 26.9559C39.56 24.7893 40 22.4459 40 19.9995C40 17.553 39.56 15.2096 38.756 13.043H1.24398C0.440078 15.2096 0 17.553 0 19.9995C0 22.4459 0.440078 24.7893 1.24398 26.9559L20 28.6951L38.756 26.9559Z" fill="#0052B4"/>
<path d="M20.0002 40.0005C28.5995 40.0005 35.9303 34.573 38.7562 26.957H1.24414C4.07 34.573 11.4009 40.0005 20.0002 40.0005Z" fill="#D80027"/>
</g>
<defs>
<clipPath id="clip0_313_5528">
<rect width="40" height="40" fill="white"/>
</clipPath>
</defs>
</svg>
