<svg width="20" height="20" viewBox="0 0 20 20" fill="none" xmlns="http://www.w3.org/2000/svg">
<g clip-path="url(#clip0_4040_5031)">
<path d="M15.8327 6.53746C15.8327 4.70122 14.5204 3.12074 12.6986 2.76268C10.9165 2.41244 9.08218 2.41244 7.30009 2.76268C5.47824 3.12074 4.16602 4.70122 4.16602 6.53746V16.0562C4.16602 17.1698 5.38895 17.8629 6.36115 17.3003L9.01693 15.7632C9.62368 15.4121 10.375 15.4121 10.9818 15.7632L13.6375 17.3003C14.6098 17.8629 16 17.6137 16 16.5V15" stroke="white" stroke-width="1.5" stroke-linecap="round" stroke-linejoin="round"/>
<path d="M18.0669 15.4474L18.0669 15.4474L18.0699 15.4502C18.3487 15.7059 18.6841 15.8147 19.015 15.7805C19.3337 15.7477 19.61 15.5868 19.8044 15.3736C19.9989 15.1604 20.1334 14.8707 20.1377 14.5507C20.1422 14.2193 20.0057 13.8952 19.7281 13.6397L17.8162 11.8563C18.2683 11.053 18.5172 10.119 18.4827 9.13071C18.3827 6.26689 15.962 4.01171 13.1019 4.11159C10.2388 4.21157 7.98439 6.6302 8.08439 9.49382C8.1844 12.3578 10.6024 14.6101 13.4651 14.5101C14.4544 14.4756 15.3717 14.1646 16.1433 13.6531L18.0669 15.4474ZM13.1874 6.55743C14.7159 6.50406 15.9839 7.68668 16.0373 9.2161C16.0907 10.745 14.9088 12.0109 13.3797 12.0643C11.848 12.1178 10.5832 10.9376 10.5298 9.40843C10.4764 7.87872 11.6563 6.6109 13.1874 6.55743Z" fill="white" stroke="#13121B"/>
</g>
<defs>
<clipPath id="clip0_4040_5031">
<rect width="20" height="20" fill="white"/>
</clipPath>
</defs>
</svg>
