<svg width="24" height="24" viewBox="0 0 24 24" fill="none" xmlns="http://www.w3.org/2000/svg">
<g clip-path="url(#clip0_1825_10368)">
<rect width="24" height="24" rx="8" fill="url(#paint0_linear_1825_10368)"/>
<path fill-rule="evenodd" clip-rule="evenodd" d="M16.4514 11.6411C16.4514 14.5698 14.6822 17.0833 12.3264 17.0833C9.9687 17.0833 8.20137 14.5698 8.20137 11.6402C8.20137 8.71233 9.72304 7 12.3264 7C14.9297 7 16.4514 8.71142 16.4514 11.6411ZM5.08654 23.6302C5.43946 24.05 6.95929 25.3333 12.3264 25.3333C17.6935 25.3333 19.2124 24.05 19.5662 23.6311C19.599 23.5908 19.6233 23.5443 19.6375 23.4943C19.6516 23.4443 19.6555 23.392 19.6487 23.3405C19.568 22.532 18.8402 18.9167 12.3264 18.9167C5.81254 18.9167 5.08471 22.532 5.00312 23.3405C4.99648 23.3921 5.00046 23.4444 5.0148 23.4944C5.02915 23.5444 5.05356 23.59 5.08654 23.6302Z" fill="white"/>
</g>
<defs>
<linearGradient id="paint0_linear_1825_10368" x1="12" y1="0" x2="12" y2="24" gradientUnits="userSpaceOnUse">
<stop stop-color="#F64E2A"/>
<stop offset="1" stop-color="#D23918"/>
</linearGradient>
<clipPath id="clip0_1825_10368">
<rect width="24" height="24" rx="8" fill="white"/>
</clipPath>
</defs>
</svg>
