<svg width="24" height="25" viewBox="0 0 24 25" fill="none" xmlns="http://www.w3.org/2000/svg">
<path d="M12.8485 4.5H11.1515C10.2143 4.5 9.45453 5.21634 9.45453 6.1C9.45453 7.11121 8.37258 7.75411 7.48444 7.27064L7.39423 7.22153C6.58258 6.77971 5.54472 7.04191 5.07612 7.80717L4.22763 9.19281C3.75902 9.95808 4.03711 10.9366 4.84877 11.3785C5.73734 11.8622 5.73733 13.1378 4.84876 13.6215C4.03711 14.0634 3.75902 15.0419 4.22763 15.8072L5.07612 17.1928C5.54472 17.9581 6.58258 18.2203 7.39423 17.7785L7.48444 17.7294C8.37258 17.2459 9.45453 17.8888 9.45453 18.9C9.45453 19.7837 10.2143 20.5 11.1515 20.5H12.8485C13.7857 20.5 14.5455 19.7837 14.5455 18.9C14.5455 17.8888 15.6274 17.2459 16.5156 17.7294L16.6058 17.7785C17.4174 18.2203 18.4553 17.9581 18.9239 17.1928L19.7724 15.8072C20.241 15.0419 19.9629 14.0634 19.1512 13.6215C18.2627 13.1378 18.2627 11.8622 19.1512 11.3785C19.9629 10.9366 20.241 9.95809 19.7724 9.19283L18.9239 7.80719C18.4553 7.04192 17.4174 6.77972 16.6058 7.22154L16.5156 7.27065C15.6274 7.75412 14.5455 7.11122 14.5455 6.1C14.5455 5.21634 13.7857 4.5 12.8485 4.5Z" stroke="white" stroke-width="1.5" stroke-linejoin="round"/>
<circle cx="12" cy="12.5" r="3" stroke="white" stroke-width="1.5"/>
</svg>
