<svg width="95" height="93" viewBox="0 0 95 93" fill="none" xmlns="http://www.w3.org/2000/svg">
<path d="M85.425 29.5191C77.7325 29.5191 74.5875 24.0791 78.4125 17.4066C80.6225 13.5391 79.305 8.60908 75.4375 6.39908L68.085 2.19158C64.7275 0.194081 60.3925 1.38408 58.395 4.74158L57.9275 5.54908C54.1025 12.2216 47.8125 12.2216 43.945 5.54908L43.4775 4.74158C41.565 1.38408 37.23 0.194081 33.8725 2.19158L26.52 6.39908C22.6525 8.60908 21.335 13.5816 23.545 17.4491C27.4125 24.0791 24.2675 29.5191 16.575 29.5191C12.155 29.5191 8.5 33.1316 8.5 37.5941V45.0741C8.5 49.4941 12.1125 53.1491 16.575 53.1491C24.2675 53.1491 27.4125 58.5891 23.545 65.2616C21.335 69.1291 22.6525 74.0591 26.52 76.2691L33.8725 80.4766C37.23 82.4741 41.565 81.2841 43.5625 77.9266L44.03 77.1191C47.855 70.4466 54.145 70.4466 58.0125 77.1191L58.48 77.9266C60.4775 81.2841 64.8125 82.4741 68.17 80.4766L75.5225 76.2691C79.39 74.0591 80.7075 69.0866 78.4975 65.2616C74.63 58.5891 77.775 53.1491 85.4675 53.1491C89.8875 53.1491 93.5425 49.5366 93.5425 45.0741V37.5941C93.5 33.1741 89.8875 29.5191 85.425 29.5191ZM51 55.1466C43.3925 55.1466 37.1875 48.9416 37.1875 41.3341C37.1875 33.7266 43.3925 27.5216 51 27.5216C58.6075 27.5216 64.8125 33.7266 64.8125 41.3341C64.8125 48.9416 58.6075 55.1466 51 55.1466Z" fill="url(#paint0_linear_2012_2168)"/>
<defs>
<linearGradient id="paint0_linear_2012_2168" x1="51.0213" y1="1.21875" x2="51.0213" y2="81.4494" gradientUnits="userSpaceOnUse">
<stop offset="0.175" stop-color="white" stop-opacity="0.05"/>
<stop offset="1" stop-color="white" stop-opacity="0"/>
</linearGradient>
</defs>
</svg>
