<svg width="21" height="21" viewBox="0 0 21 21" fill="none" xmlns="http://www.w3.org/2000/svg">
<path d="M10.916 4.53561L6.56039 8.40726C5.74614 9.13104 5.33901 9.49293 5.18897 9.92026C5.05721 10.2955 5.05721 10.7045 5.18897 11.0797C5.33901 11.5071 5.74614 11.869 6.56039 12.5927L10.916 16.4644C11.2855 16.7929 11.4703 16.9571 11.6272 16.963C11.7635 16.9681 11.8944 16.9093 11.9812 16.804C12.0811 16.6828 12.0811 16.4356 12.0811 15.9412V13.5C14.2056 13.5 16.4496 14.1824 18.0882 15.3937C18.9412 16.0243 19.3677 16.3396 19.5302 16.3272C19.6885 16.3151 19.789 16.2532 19.8712 16.1173C19.9555 15.9779 19.881 15.5422 19.7321 14.6709C18.7653 9.01299 14.8716 7.5 12.0811 7.5V5.05879C12.0811 4.56441 12.0811 4.31721 11.9812 4.19602C11.8944 4.09074 11.7635 4.03195 11.6272 4.03705C11.4703 4.04293 11.2855 4.20715 10.916 4.53561Z" fill="#F64E2A"/>
<path fill-rule="evenodd" clip-rule="evenodd" d="M8.5908 3.49096C8.34417 3.22537 7.92895 3.20999 7.66335 3.45661L3.09917 7.69478C2.2706 8.46416 1.7998 9.5438 1.7998 10.6745C1.7998 11.8664 2.32277 12.9983 3.23042 13.7709L7.68454 17.5622C7.96053 17.7972 8.37471 17.7639 8.60963 17.4879C8.84455 17.2119 8.81126 16.7977 8.53526 16.5628L4.08115 12.7715C3.46647 12.2483 3.1123 11.4817 3.1123 10.6745C3.1123 9.90877 3.43114 9.17761 3.99226 8.65657L8.55645 4.4184C8.82204 4.17178 8.83742 3.75655 8.5908 3.49096Z" fill="#F64E2A"/>
</svg>
