<svg width="20" height="20" viewBox="0 0 20 20" fill="none" xmlns="http://www.w3.org/2000/svg">
<path fill-rule="evenodd" clip-rule="evenodd" d="M18.3333 4.58317C18.3333 6.194 17.0275 7.49984 15.4166 7.49984C14.4989 7.49984 13.6802 7.07602 13.1456 6.41344C13.1268 6.42548 13.1072 6.43665 13.0868 6.44685L7.47212 9.2542C7.4519 9.26431 7.4314 9.27321 7.4107 9.28095C7.46899 9.51091 7.49996 9.75176 7.49996 9.99984C7.49996 10.2479 7.46899 10.4888 7.4107 10.7187C7.4314 10.7265 7.4519 10.7354 7.47212 10.7455L13.0868 13.5528C13.1072 13.563 13.1268 13.5742 13.1456 13.5862C13.6802 12.9237 14.4989 12.4998 15.4166 12.4998C17.0275 12.4998 18.3333 13.8057 18.3333 15.4165C18.3333 17.0273 17.0275 18.3332 15.4166 18.3332C13.8058 18.3332 12.5 17.0273 12.5 15.4165C12.5 15.1684 12.5309 14.9276 12.5892 14.6976C12.5685 14.6899 12.548 14.681 12.5278 14.6709L6.9131 11.8635C6.8927 11.8533 6.8731 11.8422 6.85434 11.8301C6.31968 12.4927 5.50098 12.9165 4.58329 12.9165C2.97246 12.9165 1.66663 11.6107 1.66663 9.99984C1.66663 8.38901 2.97246 7.08317 4.58329 7.08317C5.50098 7.08317 6.31968 7.50699 6.85434 8.16957C6.87311 8.15753 6.8927 8.14636 6.9131 8.13617L12.5278 5.32882C12.548 5.31871 12.5685 5.3098 12.5892 5.30206C12.5309 5.0721 12.5 4.83125 12.5 4.58317C12.5 2.97234 13.8058 1.6665 15.4166 1.6665C17.0275 1.6665 18.3333 2.97234 18.3333 4.58317Z" fill="#7A74BA"/>
</svg>
