<svg width="14" height="14" viewBox="0 0 14 14" fill="none" xmlns="http://www.w3.org/2000/svg">
<path d="M5.31948 0.204354L5.4766 0.840762C4.85737 0.993804 4.2647 1.23918 3.71852 1.56865L3.38241 1.00583C3.98361 0.641755 4.6368 0.371489 5.31948 0.204354ZM8.68052 0.204354L8.5234 0.840762C9.14263 0.993804 9.7353 1.23918 10.2815 1.56865L10.6216 1.00583C10.0188 0.642075 9.36433 0.371843 8.68052 0.204354ZM1.00582 3.38043C0.642087 3.9825 0.37185 4.6363 0.204346 5.31948L0.840755 5.4766C0.993796 4.85737 1.23918 4.2647 1.56865 3.71852L1.00582 3.38043ZM0.655798 7C0.65575 6.68177 0.679684 6.364 0.727395 6.04937L0.0790529 5.94993C-0.026351 6.64534 -0.026351 7.35267 0.0790529 8.04809L0.727395 7.95063C0.679758 7.636 0.655825 7.31822 0.655798 7ZM10.6176 12.9922L10.2815 12.4313C9.73617 12.7611 9.14411 13.0065 8.52539 13.1592L8.68251 13.7956C9.36435 13.6269 10.0168 13.356 10.6176 12.9922ZM13.3442 7C13.3442 7.31822 13.3202 7.636 13.2726 7.95063L13.9209 8.04809C14.0264 7.35267 14.0264 6.64534 13.9209 5.94993L13.2726 6.04937C13.3203 6.364 13.3442 6.68177 13.3442 7ZM13.7957 8.67853L13.1592 8.52141C13.0066 9.14139 12.7612 9.73476 12.4314 10.2815L12.9942 10.6196C13.3583 10.017 13.6285 9.36246 13.7957 8.67853ZM7.95064 13.2726C7.32047 13.3681 6.67953 13.3681 6.04936 13.2726L5.95191 13.9209C6.64666 14.0264 7.35334 14.0264 8.04809 13.9209L7.95064 13.2726ZM12.1072 10.7628C11.7292 11.2754 11.2759 11.7279 10.7628 12.1052L11.1526 12.6342C11.7178 12.2181 12.2178 11.7201 12.6362 11.1565L12.1072 10.7628ZM10.7628 1.89282C11.276 2.27079 11.7292 2.72403 12.1072 3.23724L12.6362 2.84346C12.2193 2.27941 11.7206 1.7807 11.1565 1.36381L10.7628 1.89282ZM1.89282 3.23724C2.27079 2.72403 2.72403 2.27079 3.23723 1.89282L2.84345 1.36381C2.2794 1.7807 1.78069 2.27941 1.3638 2.84346L1.89282 3.23724ZM12.9942 3.38043L12.4314 3.71852C12.7611 4.26384 13.0065 4.8559 13.1592 5.47461L13.7957 5.3175C13.6281 4.63494 13.3579 3.9818 12.9942 3.38043ZM6.04936 0.727402C6.67953 0.631929 7.32047 0.631929 7.95064 0.727402L8.04809 0.0790611C7.35334 -0.0263537 6.64666 -0.0263537 5.95191 0.0790611L6.04936 0.727402ZM2.22892 12.8092L0.874564 13.1234L1.19078 11.7691L0.552382 11.6199L0.236166 12.9743C0.216381 13.0583 0.213345 13.1453 0.227231 13.2304C0.241117 13.3156 0.271654 13.3972 0.317093 13.4705C0.362533 13.5438 0.421984 13.6075 0.492047 13.6578C0.562109 13.7081 0.641407 13.7442 0.725406 13.7638C0.823641 13.7857 0.925487 13.7857 1.02372 13.7638L2.37808 13.4516L2.22892 12.8092ZM0.687619 11.0352L1.32801 11.1824L1.54677 10.2437C1.2273 9.7078 0.989355 9.12735 0.840755 8.52141L0.204346 8.67853C0.347495 9.25853 0.564029 9.81791 0.84871 10.3431L0.687619 11.0352ZM3.75034 12.4552L2.81163 12.674L2.96079 13.3144L3.6509 13.1533C4.17572 13.4388 4.73521 13.6554 5.3155 13.7976L5.47262 13.1612C4.86857 13.0107 4.29018 12.7714 3.7563 12.4512L3.75034 12.4552ZM7 1.3121C3.85773 1.31409 1.31408 3.86171 1.31408 7.00199C1.31581 8.07158 1.61836 9.11911 2.18716 10.0249L1.64024 12.3597L3.97308 11.8128C6.63208 13.4854 10.1443 12.6879 11.8168 10.0309C13.4894 7.37389 12.6939 3.86171 10.0369 2.18716C9.12725 1.61515 8.07452 1.31181 7 1.3121Z" fill="#F64E2A"/>
</svg>
