<svg width="20" height="20" viewBox="0 0 20 20" fill="none" xmlns="http://www.w3.org/2000/svg">
<path d="M7.60005 0.291877L7.82502 1.20116C6.93996 1.41884 6.09292 1.76914 5.31265 2.24017L4.83134 1.4372C5.69123 0.918036 6.62469 0.531895 7.60005 0.291877ZM12.3999 0.291877L12.175 1.20116C13.06 1.41884 13.9071 1.76914 14.6873 2.24017L15.1718 1.4372C14.3109 0.917748 13.3764 0.531598 12.3999 0.291877ZM1.43753 4.83072C0.91834 5.69056 0.53218 6.62398 0.29215 7.5993L1.20161 7.82425C1.41929 6.93924 1.76961 6.09224 2.24067 5.31201L1.43753 4.83072ZM0.937547 9.99912C0.937256 9.54465 0.971215 9.09079 1.03914 8.64142L0.112499 8.50074C-0.0374997 9.49403 -0.0374997 10.5042 0.112499 11.4975L1.03914 11.3568C0.971215 10.9075 0.937256 10.4536 0.937547 9.99912ZM15.1689 18.561L14.6876 17.7581C13.9082 18.2288 13.0622 18.579 12.1782 18.797L12.4033 19.7062C13.3776 19.466 14.31 19.0799 15.1689 18.561ZM19.0626 9.99912C19.0629 10.4536 19.0289 10.9075 18.961 11.3568L19.8875 11.4975C20.0375 10.5042 20.0375 9.49403 19.8875 8.50074L18.961 8.64142C19.0289 9.09079 19.0629 9.54465 19.0626 9.99912ZM19.7079 12.399L18.7985 12.174C18.5808 13.059 18.2305 13.906 17.7595 14.6862L18.5625 15.1706C19.0819 14.3098 19.4681 13.3753 19.7079 12.399ZM11.3579 18.961C10.4578 19.0965 9.54247 19.0965 8.64235 18.961L8.50167 19.8875C9.49501 20.0375 10.5052 20.0375 11.4986 19.8875L11.3579 18.961ZM17.2953 15.3753C16.7548 16.1073 16.1075 16.7541 15.3751 17.294L15.9313 18.0486C16.7394 17.4546 17.4536 16.7425 18.05 15.9363L17.2953 15.3753ZM15.3751 2.70453C16.1077 3.24488 16.7549 3.89215 17.2953 4.62469L18.05 4.06223C17.4554 3.25646 16.7434 2.54442 15.9376 1.94986L15.3751 2.70453ZM2.70492 4.62469C3.2453 3.89215 3.8926 3.24488 4.62518 2.70453L4.06269 1.94986C3.25693 2.54443 2.54489 3.25647 1.95034 4.06223L2.70492 4.62469ZM18.5622 4.83097L17.7592 5.31213C18.2299 6.09144 18.5802 6.93741 18.7981 7.82139L19.7076 7.59643C19.4673 6.62219 19.0811 5.68985 18.5622 4.83097ZM8.6421 1.03895C9.54222 0.903538 10.4575 0.903538 11.3577 1.03895L11.4983 0.112484C10.505 -0.0374947 9.49484 -0.0374947 8.50154 0.112484L8.6421 1.03895ZM3.18585 18.2972L1.24991 18.7489L1.70147 16.8131L0.788896 16.5989L0.337467 18.5348C0.301081 18.6901 0.304933 18.8521 0.348658 19.0055C0.392382 19.1589 0.474533 19.2987 0.587335 19.4115C0.700136 19.5242 0.839858 19.6064 0.993274 19.6501C1.14669 19.6938 1.30873 19.6977 1.46405 19.6613L3.39837 19.2176L3.18585 18.2972ZM0.984234 15.7632L1.8968 15.9756L2.20929 14.6336C1.75379 13.868 1.41417 13.0393 1.20148 12.1742L0.292025 12.3992C0.495856 13.2277 0.805672 14.0264 1.21381 14.7756L0.984234 15.7632ZM5.35922 17.7943L4.01713 18.1068L4.22952 19.0193L5.21704 18.7895C5.9663 19.1976 6.76507 19.5075 7.59358 19.7114L7.81855 18.8021C6.95533 18.5868 6.12868 18.2451 5.36544 17.7881L5.35922 17.7943ZM9.99975 1.87554C8.54806 1.8763 7.12308 2.26597 5.87303 3.00403C4.62298 3.74209 3.59351 4.80158 2.8917 6.0723C2.18989 7.34301 1.84138 8.77855 1.8824 10.2296C1.92343 11.6806 2.35249 13.0942 3.12498 14.3232L2.34363 17.6559L5.67644 16.8746C6.74235 17.546 7.9498 17.9603 9.20339 18.0849C10.457 18.2094 11.7224 18.0408 12.8996 17.5923C14.0768 17.1438 15.1336 16.4277 15.9865 15.5006C16.8394 14.5736 17.465 13.4608 17.8139 12.2504C18.1628 11.04 18.2254 9.76502 17.9969 8.52623C17.7683 7.28743 17.2548 6.11875 16.4969 5.11251C15.739 4.10627 14.7575 3.29004 13.63 2.7283C12.5024 2.16656 11.2596 1.8747 9.99988 1.87579L9.99975 1.87554Z" fill="white"/>
</svg>
