<svg width="14" height="14" viewBox="0 0 14 14" fill="none" xmlns="http://www.w3.org/2000/svg">
<path fill-rule="evenodd" clip-rule="evenodd" d="M1.24995 3.52157L3.55715 5.77524L5.92859 3.45898L7.08235 4.5859L4.71076 6.90216L7.01812 9.15583L5.8324 10.314L3.52504 8.06021L1.15377 10.3766L0 9.24988L2.37144 6.93345L0.0642377 4.67978L1.24995 3.52157Z" fill="#F64E2A"/>
<path fill-rule="evenodd" clip-rule="evenodd" d="M5.80654 10.3765L6.98007 9.21612L6.97957 9.21579L9.32729 6.89558L7.02437 4.61934L7.02454 4.61918L5.87324 3.48089L3.57049 1.20433L4.74419 0.0441408L7.04694 2.32054L9.39433 0L10.5458 1.13828L8.19807 3.45882L10.501 5.73522L12.8487 3.41468L14.0002 4.55297L11.6524 6.8735L13.9555 9.15007L12.7818 10.3104L10.4787 8.03369L8.1312 10.3542L10.4343 12.631L9.26058 13.7912L6.9575 11.5146L4.61044 13.8353L3.45898 12.697L5.80654 10.3765Z" fill="#F64E2A"/>
</svg>
