<svg width="40" height="40" viewBox="0 0 40 40" fill="none" xmlns="http://www.w3.org/2000/svg">
<g clip-path="url(#clip0_313_5548)">
<path d="M0 20.0003C0 22.4467 0.440078 24.7902 1.24398 26.9568L20 28.6959L38.756 26.9568C39.5599 24.7902 40 22.4467 40 20.0003C40 17.5539 39.5599 15.2105 38.756 13.0438L20 11.3047L1.24398 13.0438C0.440078 15.2105 0 17.5539 0 20.0003H0Z" fill="#FFDA44"/>
<path d="M38.7562 13.0435C35.9303 5.42758 28.5995 0 20.0002 0C11.4009 0 4.07 5.42758 1.24414 13.0435H38.7562Z" fill="#D80027"/>
<path d="M1.24414 26.957C4.07 34.573 11.4009 40.0005 20.0002 40.0005C28.5995 40.0005 35.9303 34.573 38.7562 26.957H1.24414Z" fill="#D80027"/>
</g>
<defs>
<clipPath id="clip0_313_5548">
<rect width="40" height="40" fill="white"/>
</clipPath>
</defs>
</svg>
