<svg width="65" height="64" viewBox="0 0 65 64" fill="none" xmlns="http://www.w3.org/2000/svg">
<g clip-path="url(#clip0_2133_14211)">
<path d="M32.5 64C50.1731 64 64.5 49.6731 64.5 32C64.5 14.3269 50.1731 0 32.5 0C14.8269 0 0.5 14.3269 0.5 32C0.5 49.6731 14.8269 64 32.5 64Z" fill="url(#paint0_linear_2133_14211)"/>
<path fill-rule="evenodd" clip-rule="evenodd" d="M14.985 31.6621C24.3137 27.5978 30.5342 24.9183 33.6467 23.6237C42.5334 19.9274 44.38 19.2853 45.5836 19.2641C45.8483 19.2595 46.4402 19.3251 46.8236 19.6362C47.1474 19.8989 47.2364 20.2537 47.279 20.5028C47.3217 20.7518 47.3747 21.3192 47.3326 21.7625C46.851 26.8225 44.7672 39.1016 43.7071 44.7689C43.2585 47.1669 42.3753 47.9709 41.5202 48.0496C39.6619 48.2206 38.2508 46.8215 36.4509 45.6417C33.6345 43.7955 32.0434 42.6462 29.3096 40.8447C26.1502 38.7627 28.1983 37.6184 29.9988 35.7483C30.4701 35.2589 38.6578 27.8115 38.8162 27.1359C38.8361 27.0514 38.8545 26.7365 38.6673 26.5702C38.4802 26.4039 38.2041 26.4607 38.0048 26.506C37.7223 26.5701 33.2231 29.5439 24.507 35.4275C23.2299 36.3044 22.0732 36.7317 21.0367 36.7093C19.8942 36.6847 17.6963 36.0633 16.0625 35.5322C14.0585 34.8808 12.4657 34.5364 12.6044 33.4301C12.6767 32.8538 13.4702 32.2645 14.985 31.6621Z" fill="white"/>
</g>
<defs>
<linearGradient id="paint0_linear_2133_14211" x1="32.5" y1="0" x2="32.5" y2="63.5253" gradientUnits="userSpaceOnUse">
<stop stop-color="#2AABEE"/>
<stop offset="1" stop-color="#229ED9"/>
</linearGradient>
<clipPath id="clip0_2133_14211">
<rect width="64" height="64" fill="white" transform="translate(0.5)"/>
</clipPath>
</defs>
</svg>
