<svg width="24" height="21" viewBox="0 0 24 21" fill="none" xmlns="http://www.w3.org/2000/svg">
<g clip-path="url(#clip0_313_4447)">
<path fill-rule="evenodd" clip-rule="evenodd" d="M4.71192 0.598228L0.518218 9.40373C0.50226 9.43648 0.497202 9.47348 0.503786 9.50931C0.51037 9.54514 0.528249 9.57792 0.554809 9.60287L11.881 20.4519C11.9132 20.4828 11.956 20.5 12.0006 20.5C12.0452 20.5 12.088 20.4828 12.1202 20.4519L23.4464 9.60355C23.4729 9.5786 23.4908 9.54581 23.4974 9.50998C23.504 9.47415 23.4989 9.43716 23.483 9.40441L19.2893 0.598906C19.2757 0.569333 19.254 0.544281 19.2266 0.526744C19.1992 0.509208 19.1673 0.499927 19.1348 0.500013H4.86777C4.83509 0.499607 4.80298 0.508663 4.77532 0.52609C4.74767 0.543518 4.72565 0.568571 4.71192 0.598228Z" fill="#50AF95"/>
<path fill-rule="evenodd" clip-rule="evenodd" d="M13.4548 10.3076C13.3735 10.3137 12.9533 10.3388 12.0162 10.3388C11.2708 10.3388 10.7416 10.3164 10.556 10.3076C7.67547 10.181 5.52542 9.67972 5.52542 9.07959C5.52542 8.47946 7.67547 7.9789 10.556 7.85021V9.80841C10.7443 9.82196 11.2837 9.8538 12.0291 9.8538C12.9235 9.8538 13.3714 9.81654 13.4521 9.80909V7.85156C16.3265 7.97958 18.4718 8.48082 18.4718 9.07959C18.4718 9.67836 16.3271 10.1796 13.4521 10.3069L13.4548 10.3076ZM13.4548 7.64904V5.89674H17.4662V3.22461H6.54454V5.89674H10.5553V7.64836C7.29533 7.79805 4.84375 8.44356 4.84375 9.21709C4.84375 9.99062 7.29533 10.6355 10.5553 10.7858V16.401H13.4541V10.7838C16.7066 10.6341 19.1541 9.98927 19.1541 9.21641C19.1541 8.44356 16.7086 7.79873 13.4541 7.64836L13.4548 7.64904Z" fill="white"/>
</g>
<defs>
<clipPath id="clip0_313_4447">
<rect width="23" height="20" fill="white" transform="translate(0.5 0.5)"/>
</clipPath>
</defs>
</svg>
