<svg width="95" height="95" viewBox="0 0 95 95" fill="none" xmlns="http://www.w3.org/2000/svg">
<path d="M89.0375 10.5525C87.805 8.7675 86.2325 7.195 84.4475 5.9625C80.41 3.03 75.14 1.5 68.8075 1.5H33.1925C32.3425 1.5 31.4925 1.5425 30.685 1.6275C16.745 2.52 8.5 11.5725 8.5 26.1925V61.8075C8.5 68.14 10.03 73.41 12.9625 77.4475C14.195 79.2325 15.7675 80.805 17.5525 82.0375C21.0375 84.5875 25.4575 86.075 30.685 86.415C31.4925 86.4575 32.3425 86.5 33.1925 86.5H68.8075C84.2775 86.5 93.5 77.2775 93.5 61.8075V26.1925C93.5 19.86 91.97 14.59 89.0375 10.5525ZM79.6875 30.825C79.6875 32.5675 78.2425 34.0125 76.5 34.0125C74.7575 34.0125 73.3125 32.5675 73.3125 30.825V25.81C73.3125 24.45 72.2075 23.345 70.8475 23.345H54.1875V64.655H61.7525C63.495 64.655 64.94 66.1 64.94 67.8425C64.94 69.585 63.495 71.03 61.7525 71.03H40.2475C38.505 71.03 37.06 69.585 37.06 67.8425C37.06 66.1 38.505 64.655 40.2475 64.655H47.8125V23.345H31.1525C29.7925 23.345 28.6875 24.45 28.6875 25.81V30.825C28.6875 32.5675 27.2425 34.0125 25.5 34.0125C23.7575 34.0125 22.3125 32.5675 22.3125 30.825V25.81C22.3125 20.9225 26.265 16.97 31.1525 16.97H70.805C75.6925 16.97 79.645 20.9225 79.645 25.81V30.825H79.6875Z" fill="url(#paint0_linear_2012_1405)"/>
<defs>
<linearGradient id="paint0_linear_2012_1405" x1="51" y1="1.5" x2="51" y2="86.5" gradientUnits="userSpaceOnUse">
<stop stop-color="white" stop-opacity="0.05"/>
<stop offset="0.41" stop-color="white" stop-opacity="0.047"/>
<stop offset="1" stop-color="white" stop-opacity="0"/>
</linearGradient>
</defs>
</svg>
