<svg width="96" height="88" viewBox="0 0 96 88" fill="none" xmlns="http://www.w3.org/2000/svg">
<path d="M84.3629 40.9945C84.3629 44.3945 87.1254 47.1995 90.5254 47.1995C92.1404 47.1995 93.5004 48.517 93.5004 50.132C93.5004 66.452 88.5704 71.382 72.2504 71.382H49.9379V64.6245C49.9379 62.967 48.6629 61.607 47.0479 61.4795C46.9629 61.437 46.8354 61.437 46.7504 61.437C45.0079 61.437 43.5629 62.882 43.5629 64.6245V71.382H36.0829C28.0929 71.382 23.9704 65.3895 20.2304 56.337L19.5079 54.5519C18.9129 53.0219 19.6354 51.2795 21.1654 50.6845C22.7379 50.0895 23.9704 48.857 24.6079 47.242C25.2879 45.6695 25.2879 43.927 24.6504 42.3545C23.2904 39.082 19.5504 37.5095 16.2354 38.827C15.5129 39.167 14.6629 39.167 13.9404 38.827C13.2179 38.5295 12.6654 37.9345 12.3254 37.1695L11.6879 35.4695C5.35539 20.0845 8.11789 13.497 23.5029 7.12195L33.9154 2.82945C35.4454 2.19195 37.1879 2.91445 37.7829 4.44445L47.0479 24.632C45.3054 24.632 43.5629 26.0345 43.5629 27.777V46.222C43.5629 47.9645 45.0079 49.4095 46.7504 49.4095C46.8354 49.4095 46.9629 49.4095 47.0479 49.367C48.6629 49.2395 49.9379 47.8795 49.9379 46.222V27.777C49.9379 26.1195 48.6629 24.7595 47.0479 24.632V6.95195H72.2504C88.5704 6.95195 93.5004 11.882 93.5004 28.202V31.8145C93.5004 33.472 92.1404 34.7895 90.5254 34.7895C87.1254 34.7895 84.3629 37.552 84.3629 40.9945Z" fill="url(#paint0_linear_313_5402)"/>
<defs>
<linearGradient id="paint0_linear_313_5402" x1="51.0085" y1="2.59766" x2="51.0085" y2="71.382" gradientUnits="userSpaceOnUse">
<stop offset="0.239" stop-color="white" stop-opacity="0.05"/>
<stop offset="1" stop-color="white" stop-opacity="0"/>
</linearGradient>
</defs>
</svg>
