<svg width="28" height="28" viewBox="0 0 28 28" fill="none" xmlns="http://www.w3.org/2000/svg">
<path d="M14 28C21.732 28 28 21.732 28 14C28 6.268 21.732 0 14 0C6.268 0 0 6.268 0 14C0 21.732 6.268 28 14 28Z" fill="#0098EA"/>
<path d="M18.7806 7.81396H9.2197C7.4618 7.81396 6.34765 9.71021 7.232 11.2432L13.1326 21.4706C13.5176 22.1384 14.4826 22.1384 14.8676 21.4706L20.7695 11.2432C21.6526 9.71266 20.5385 7.81396 18.7817 7.81396H18.7806ZM13.1278 18.4035L11.8427 15.9165L8.74205 10.3708C8.5375 10.0159 8.79015 9.56102 9.2185 9.56102H13.1266V18.4047L13.1278 18.4035ZM19.2558 10.3696L16.1563 15.9177L14.8712 18.4035V9.55982H18.7794C19.2077 9.55982 19.4604 10.0147 19.2558 10.3696Z" fill="white"/>
</svg>
