<svg width="18" height="18" viewBox="0 0 18 18" fill="none" xmlns="http://www.w3.org/2000/svg">
<path d="M3.00002 10.3125C2.76806 10.3125 2.55988 10.4549 2.47579 10.6711C2.39169 10.8873 2.44893 11.1329 2.61993 11.2897L7.11993 15.4147C7.28437 15.5654 7.52235 15.6047 7.7265 15.5149C7.93073 15.4251 8.0625 15.223 8.0625 15V3C8.0625 2.68933 7.81065 2.4375 7.5 2.4375C7.18937 2.4375 6.93752 2.68933 6.93752 3V10.3125H3.00002Z" fill="white"/>
<path d="M15 7.6875H11.0625V15C11.0625 15.3107 10.8106 15.5625 10.5 15.5625C10.1894 15.5625 9.9375 15.3107 9.9375 15V3.00002C9.9375 2.77694 10.0693 2.57495 10.2735 2.48513C10.4777 2.39531 10.7157 2.43463 10.8801 2.58536L15.3801 6.71036C15.5511 6.86711 15.6083 7.11275 15.5242 7.32893C15.4402 7.54515 15.232 7.6875 15 7.6875Z" fill="white"/>
</svg>
