<svg width="97" height="97" viewBox="0 0 97 97" fill="none" xmlns="http://www.w3.org/2000/svg">
<path d="M37.9525 3.5H21.335C12.75 3.5 8.5 7.75 8.5 16.335V32.995C8.5 41.75 12.75 46 21.335 45.7875H37.995C46.75 46 51 41.75 50.7875 32.9525V16.335C51 7.75 46.75 3.5 37.9525 3.5ZM38.2925 36.48C35.4025 36.48 32.5975 35.375 30.26 33.42C27.625 35.3325 24.4375 36.48 20.995 36.48C19.2525 36.48 17.8075 35.035 17.8075 33.2925C17.8075 31.55 19.2525 30.105 20.995 30.105C25.33 30.105 28.9425 27.13 30.26 23.05H20.995C19.2525 23.05 17.8075 21.605 17.8075 19.8625C17.8075 18.12 19.2525 16.675 20.995 16.675H26.4775C26.6475 15.06 27.965 13.785 29.6225 13.785C31.28 13.785 32.5975 15.06 32.7675 16.675H33.8725C33.915 16.675 33.9575 16.675 33.9575 16.675H34.0425H38.25C39.9925 16.675 41.4375 18.12 41.4375 19.8625C41.4375 21.605 40.035 23.05 38.25 23.05H36.8475C36.465 25.09 35.6575 27.0025 34.595 28.745C35.7425 29.595 36.975 30.105 38.2925 30.105C40.035 30.105 41.48 31.55 41.48 33.2925C41.48 35.035 40.035 36.48 38.2925 36.48Z" fill="url(#paint0_linear_2012_1395)"/>
<path d="M38.25 91.6875C20.1025 91.6875 5.3125 76.8975 5.3125 58.75C5.3125 57.0075 6.7575 55.5625 8.5 55.5625C10.2425 55.5625 11.6875 57.0075 11.6875 58.75C11.6875 71.33 20.4425 81.87 32.215 84.6325L31.0675 82.72C30.175 81.19 30.6425 79.235 32.1725 78.3425C33.66 77.45 35.6575 77.9175 36.55 79.4475L41.0125 86.885C41.6075 87.8625 41.6075 89.095 41.055 90.0725C40.46 91.05 39.3975 91.6875 38.25 91.6875Z" fill="url(#paint1_linear_2012_1395)"/>
<path d="M93.5003 36.4375C91.7578 36.4375 90.3128 34.9925 90.3128 33.25C90.3128 20.67 81.5578 10.13 69.7853 7.3675L70.9328 9.28C71.8253 10.81 71.3578 12.765 69.8278 13.6575C68.3403 14.55 66.3428 14.0825 65.4503 12.5525L60.9878 5.115C60.3928 4.1375 60.3928 2.905 60.9453 1.9275C61.5403 0.95 62.6028 0.3125 63.7503 0.3125C81.8978 0.3125 96.6878 15.1025 96.6878 33.25C96.6878 34.9925 95.2428 36.4375 93.5003 36.4375Z" fill="url(#paint2_linear_2012_1395)"/>
<path d="M71.9103 45.3633C60.0103 45.3633 50.3203 55.0108 50.3203 66.9533C50.3203 78.8533 59.9678 88.5433 71.9103 88.5433C83.8103 88.5433 93.5003 78.8958 93.5003 66.9533C93.5003 55.0108 83.8528 45.3633 71.9103 45.3633ZM82.4503 77.1958C80.8778 77.9608 78.9653 77.3658 78.1578 75.7508L77.4353 74.3058H66.4278L65.7053 75.7508C65.1528 76.8558 64.0053 77.4933 62.8578 77.4933C62.3903 77.4933 61.8803 77.3658 61.4553 77.1533C59.8828 76.3458 59.2453 74.4333 60.0103 72.8608L69.1053 54.7133C69.6578 53.6508 70.7628 52.9708 71.9528 52.9708C73.1428 52.9708 74.2478 53.6508 74.8003 54.7558L83.8953 72.9033C84.6603 74.4758 84.0228 76.3883 82.4503 77.1958Z" fill="url(#paint3_linear_2012_1395)"/>
<path d="M69.6152 67.9294H74.2477L71.9102 63.2969L69.6152 67.9294Z" fill="url(#paint4_linear_2012_1395)"/>
<defs>
<linearGradient id="paint0_linear_2012_1395" x1="29.6475" y1="3.5" x2="29.6475" y2="45.7951" gradientUnits="userSpaceOnUse">
<stop offset="0.585" stop-color="white" stop-opacity="0.05"/>
<stop offset="1" stop-color="white" stop-opacity="0"/>
</linearGradient>
<linearGradient id="paint1_linear_2012_1395" x1="23.3884" y1="55.5625" x2="23.3884" y2="91.6875" gradientUnits="userSpaceOnUse">
<stop offset="0.585" stop-color="white" stop-opacity="0.05"/>
<stop offset="1" stop-color="white" stop-opacity="0"/>
</linearGradient>
<linearGradient id="paint2_linear_2012_1395" x1="78.612" y1="0.3125" x2="78.612" y2="36.4375" gradientUnits="userSpaceOnUse">
<stop offset="0.585" stop-color="white" stop-opacity="0.05"/>
<stop offset="1" stop-color="white" stop-opacity="0"/>
</linearGradient>
<linearGradient id="paint3_linear_2012_1395" x1="71.9103" y1="45.3633" x2="71.9103" y2="88.5433" gradientUnits="userSpaceOnUse">
<stop offset="0.585" stop-color="white" stop-opacity="0.05"/>
<stop offset="1" stop-color="white" stop-opacity="0"/>
</linearGradient>
<linearGradient id="paint4_linear_2012_1395" x1="71.9315" y1="63.2969" x2="71.9315" y2="67.9294" gradientUnits="userSpaceOnUse">
<stop offset="0.585" stop-color="white" stop-opacity="0.05"/>
<stop offset="1" stop-color="white" stop-opacity="0"/>
</linearGradient>
</defs>
</svg>
