<svg width="48" height="48" viewBox="0 0 48 48" fill="none" xmlns="http://www.w3.org/2000/svg">
<path fill-rule="evenodd" clip-rule="evenodd" d="M24 48C30.3652 48 36.4697 45.4714 40.9706 40.9706C45.4714 36.4697 48 30.3652 48 24C48 17.6348 45.4714 11.5303 40.9706 7.02944C36.4697 2.52856 30.3652 0 24 0C17.6348 0 11.5303 2.52856 7.02944 7.02944C2.52856 11.5303 0 17.6348 0 24C0 30.3652 2.52856 36.4697 7.02944 40.9706C11.5303 45.4714 17.6348 48 24 48ZM34.304 19.92C34.7908 19.3065 35.0184 18.5269 34.9381 17.7479C34.8578 16.9688 34.4761 16.252 33.8745 15.7506C33.2728 15.2493 32.4989 15.003 31.7182 15.0646C30.9374 15.1261 30.2117 15.4906 29.696 16.08L21.8 25.556L18.12 21.876C17.5539 21.3298 16.796 21.0278 16.0094 21.035C15.2228 21.0422 14.4705 21.358 13.9145 21.9145C13.3586 22.471 13.0434 23.2236 13.037 24.0102C13.0305 24.7968 13.3333 25.5545 13.88 26.12L19.88 32.12C20.1747 32.4145 20.5275 32.6444 20.9159 32.795C21.3043 32.9456 21.7199 33.0137 22.1361 32.9949C22.5523 32.9761 22.96 32.8708 23.3332 32.6857C23.7065 32.5007 24.0371 32.2399 24.304 31.92L34.304 19.92Z" fill="#F64E2A"/>
</svg>
