<svg width="20" height="20" viewBox="0 0 20 20" fill="none" xmlns="http://www.w3.org/2000/svg">
<path d="M15.833 5.83301V15C15.833 16.8409 14.3409 18.333 12.5 18.333H7.5C5.65905 18.333 4.16699 16.8409 4.16699 15V5.83301H15.833ZM8.33301 8.54199C7.98798 8.54217 7.70801 8.82192 7.70801 9.16699V15C7.70801 15.3451 7.98798 15.6248 8.33301 15.625C8.67819 15.625 8.95801 15.3452 8.95801 15V9.16699C8.95801 8.82181 8.67819 8.54199 8.33301 8.54199ZM11.667 8.54199C11.3218 8.54199 11.042 8.82181 11.042 9.16699V15C11.042 15.3452 11.3218 15.625 11.667 15.625C12.012 15.6248 12.292 15.3451 12.292 15V9.16699C12.292 8.82192 12.012 8.54217 11.667 8.54199ZM10.7744 1.66699C11.3317 1.66699 11.852 1.94552 12.1611 2.40918L12.917 3.54199H16.042C16.387 3.54217 16.667 3.82192 16.667 4.16699C16.6668 4.51191 16.3869 4.79182 16.042 4.79199H3.95801C3.61309 4.79182 3.33318 4.51191 3.33301 4.16699C3.33301 3.82192 3.61298 3.54217 3.95801 3.54199H7.08301L7.83887 2.40918C8.14798 1.94552 8.66833 1.66699 9.22559 1.66699H10.7744Z" fill="#443D69"/>
</svg>
