<svg width="66" height="21" viewBox="0 0 66 21" fill="none" xmlns="http://www.w3.org/2000/svg">
<path d="M9.34086 16.7186L14.6472 0.280749H19.1056L11.592 20.7193H8.62458L9.34086 16.7186ZM4.44385 0.280749L9.72093 16.7186L10.4811 20.7193H7.48439L0 0.280749H4.44385Z" fill="white"/>
<path d="M25.5814 0.280749V20.7193H21.5615V0.280749H25.5814Z" fill="white"/>
<path d="M41.0618 15.4131C41.0618 15.0201 40.9984 14.6691 40.8718 14.3603C40.7548 14.0421 40.5355 13.7567 40.214 13.504C39.9021 13.242 39.4587 12.9893 38.8837 12.746C38.3185 12.4933 37.5876 12.2313 36.691 11.9599C35.697 11.6604 34.7712 11.3235 33.9136 10.9492C33.056 10.5749 32.3008 10.1397 31.6478 9.64372C31.0047 9.14773 30.5028 8.57687 30.1422 7.93115C29.7816 7.27607 29.6013 6.51805 29.6013 5.65709C29.6013 4.81484 29.7865 4.04746 30.1568 3.35495C30.5369 2.66243 31.0729 2.06818 31.7648 1.57219C32.4567 1.06684 33.2704 0.678476 34.206 0.407086C35.1513 0.135695 36.194 0 37.3342 0C38.913 0 40.2773 0.27607 41.4272 0.828209C42.5869 1.38035 43.4835 2.12901 44.1169 3.0742C44.7504 4.01938 45.0671 5.08155 45.0671 6.26069H41.0618C41.0618 5.62433 40.9205 5.06283 40.6379 4.5762C40.365 4.08957 39.946 3.70588 39.3807 3.42513C38.8252 3.14439 38.1236 3.00401 37.2757 3.00401C36.4571 3.00401 35.775 3.12099 35.2292 3.35495C34.6932 3.5889 34.2888 3.90709 34.0159 4.30949C33.7528 4.7119 33.6213 5.1611 33.6213 5.65709C33.6213 6.03142 33.7138 6.36832 33.899 6.66778C34.0842 6.95789 34.3619 7.23396 34.7322 7.49599C35.1025 7.74866 35.5606 7.9873 36.1063 8.2119C36.6618 8.42714 37.305 8.64238 38.0359 8.85762C39.2053 9.19452 40.2286 9.56885 41.1056 9.98061C41.9925 10.3924 42.7282 10.8603 43.313 11.3844C43.9074 11.9084 44.3508 12.498 44.6432 13.1531C44.9453 13.8082 45.0963 14.5521 45.0963 15.385C45.0963 16.2647 44.9161 17.0508 44.5555 17.7433C44.1949 18.4358 43.6784 19.0254 43.006 19.512C42.3336 19.9987 41.5247 20.3683 40.5794 20.621C39.6439 20.8737 38.5962 21 37.4365 21C36.4035 21 35.3803 20.869 34.3668 20.607C33.363 20.3356 32.4518 19.9332 31.6332 19.3997C30.8146 18.857 30.1617 18.1738 29.6744 17.3503C29.1872 16.5174 28.9435 15.5441 28.9435 14.4305H32.9781C32.9781 15.0762 33.0853 15.6283 33.2997 16.0869C33.5238 16.5361 33.8357 16.9057 34.2352 17.1959C34.6445 17.4766 35.122 17.6825 35.6678 17.8135C36.2135 17.9445 36.8031 18.01 37.4365 18.01C38.2551 18.01 38.9276 17.9024 39.4538 17.6872C39.9898 17.4626 40.3894 17.1537 40.6525 16.7607C40.9254 16.3676 41.0618 15.9184 41.0618 15.4131Z" fill="white"/>
<path d="M56.6591 3.38302L50.5927 20.7193H46.3389L54.291 0.280749H57.01L56.6591 3.38302ZM61.7316 20.7193L55.6359 3.38302L55.2704 0.280749H58.004L66 20.7193H61.7316ZM61.4538 13.125V16.1711H50.0372V13.125H61.4538Z" fill="white"/>
</svg>
