<svg width="21" height="20" viewBox="0 0 21 20" fill="none" xmlns="http://www.w3.org/2000/svg">
<path d="M6.16877 16.9252L6.47113 17.0981C7.74166 17.8252 9.1983 18.2097 10.6837 18.2105H10.687C15.2489 18.2105 18.9617 14.6309 18.9635 10.2313C18.9642 8.09911 18.1042 6.09446 16.5415 4.58615C14.9788 3.07811 12.901 2.24703 10.6899 2.24614C6.12456 2.24614 2.4117 5.82524 2.40998 10.2248C2.40938 11.7324 2.84671 13.2007 3.67534 14.471L3.87229 14.7729L3.03597 17.7173L6.16877 16.9252ZM0.645264 19.9981L2.05796 15.0236C1.18659 13.5677 0.72819 11.9162 0.728907 10.2243C0.731031 4.93126 5.19783 0.625 10.6872 0.625C13.3508 0.626107 15.851 1.62582 17.7311 3.44039C19.611 5.25493 20.646 7.66693 20.6451 10.2321C20.6428 15.5249 16.1751 19.832 10.6872 19.832C10.6868 19.832 10.6874 19.832 10.6872 19.832H10.6829C9.01637 19.8314 7.37881 19.4283 5.92438 18.6633L0.645264 19.9981Z" fill="white"/>
<path d="M0.728907 10.2271C0.728304 11.9189 1.18671 13.5706 2.05807 15.0263L0.645264 20.0005L5.92421 18.6657C7.37872 19.4306 9.0162 19.8338 10.6827 19.8344H10.687C16.1749 19.8344 20.6427 15.5273 20.645 10.2345C20.6459 7.66923 19.6109 5.25729 17.731 3.44283C15.8507 1.62837 13.3507 0.628549 10.687 0.627441C5.19795 0.627441 0.731036 4.9337 0.72874 10.2268M3.8724 14.7755L3.67534 14.4737C2.84672 13.2033 2.40938 11.735 2.40998 10.2275C2.41179 5.82823 6.12456 2.24886 10.6899 2.24886C12.9008 2.24969 14.9786 3.08085 16.5415 4.58886C18.1043 6.09698 18.9642 8.1018 18.9636 10.2338C18.9616 14.6333 15.2487 18.2129 10.6868 18.2129H10.6836C9.19816 18.2121 7.7414 17.8276 6.47097 17.1006L6.1686 16.9278L3.03585 17.7198L3.8724 14.7755ZM10.687 19.8344C10.6868 19.8344 10.6869 19.8344 10.687 19.8344V19.8344Z" fill="url(#paint0_linear_2133_11923)"/>
<path fill-rule="evenodd" clip-rule="evenodd" d="M8.19805 6.21243C8.01163 5.81283 7.81549 5.80484 7.63818 5.7978C7.49308 5.79185 7.32712 5.79224 7.16135 5.79224C6.99539 5.79224 6.72583 5.8523 6.49789 6.09241C6.26975 6.33253 5.62695 6.91297 5.62695 8.09346C5.62695 9.27406 6.51867 10.4148 6.6429 10.5751C6.76735 10.735 8.36425 13.2351 10.8931 14.1968C12.995 14.996 13.4227 14.8371 13.8789 14.797C14.3351 14.7571 15.351 14.2168 15.5583 13.6565C15.7657 13.0962 15.7657 12.616 15.7035 12.5157C15.6413 12.4157 15.4754 12.3557 15.2266 12.2358C14.9777 12.1158 13.7544 11.5352 13.5264 11.4552C13.2982 11.3752 13.1324 11.3352 12.9664 11.5755C12.8005 11.8154 12.324 12.3557 12.1788 12.5157C12.0337 12.6761 11.8885 12.6961 11.6397 12.5761C11.3908 12.4557 10.5894 12.2026 9.63876 11.3852C8.89905 10.7493 8.39972 9.96384 8.25451 9.7236C8.1094 9.48368 8.23902 9.35371 8.36377 9.23408C8.47556 9.12656 8.61267 8.95392 8.73712 8.81388C8.86127 8.67376 8.90268 8.57376 8.98562 8.41371C9.06865 8.25356 9.02713 8.11343 8.96496 7.99341C8.90268 7.87339 8.4193 6.6869 8.19805 6.21243Z" fill="white"/>
<defs>
<linearGradient id="paint0_linear_2133_11923" x1="10.6453" y1="20.0011" x2="10.6453" y2="0.628023" gradientUnits="userSpaceOnUse">
<stop stop-color="#F9F9F9"/>
<stop offset="1" stop-color="white"/>
</linearGradient>
</defs>
</svg>
