<svg width="30" height="30" viewBox="0 0 30 30" fill="none" xmlns="http://www.w3.org/2000/svg">
<rect width="30" height="30" rx="8" fill="#3150DA"/>
<path d="M6.66675 11.6667H8.33341L13.552 13.9498C14.3535 14.3005 14.7221 15.2321 14.3774 16.0362V16.0362C14.031 16.8446 13.0947 17.2191 12.2863 16.8727L10.8334 16.25" stroke="white" stroke-width="1.5" stroke-linecap="round" stroke-linejoin="round"/>
<path d="M7.00216 18.4959C6.63167 18.3106 6.18117 18.4608 5.99593 18.8313C5.81069 19.2018 5.96085 19.6523 6.33134 19.8375L7.00216 18.4959ZM14.5022 15.9959L13.8313 15.6605L13.1605 17.0021L13.8313 17.3375L14.5022 15.9959ZM16.2332 17.6999L15.8978 18.3707L16.2332 17.6999ZM18.9165 18.3334V19.0834H20.0001V18.3334V17.5834H18.9165V18.3334ZM20.0001 21.6667V20.9167H13.5553V21.6667V22.4167H20.0001V21.6667ZM9.97758 20.8221L10.313 20.1513L7.00216 18.4959L6.66675 19.1667L6.33134 19.8375L9.64217 21.4929L9.97758 20.8221ZM16.2332 17.6999L16.5686 17.0291L14.5022 15.9959L14.1667 16.6667L13.8313 17.3375L15.8978 18.3707L16.2332 17.6999ZM13.5553 21.6667V20.9167C12.4298 20.9167 11.3197 20.6546 10.313 20.1513L9.97758 20.8221L9.64217 21.4929C10.8572 22.1004 12.1969 22.4167 13.5553 22.4167V21.6667ZM21.6667 20H20.9167C20.9167 20.5063 20.5063 20.9167 20.0001 20.9167V21.6667V22.4167C21.3348 22.4167 22.4167 21.3347 22.4167 20H21.6667ZM20.0001 18.3334V19.0834C20.5063 19.0834 20.9167 19.4938 20.9167 20H21.6667H22.4167C22.4167 18.6653 21.3348 17.5834 20.0001 17.5834V18.3334ZM18.9165 18.3334V17.5834C18.1015 17.5834 17.2976 17.3936 16.5686 17.0291L16.2332 17.6999L15.8978 18.3707C16.8351 18.8394 17.8686 19.0834 18.9165 19.0834V18.3334Z" fill="white"/>
<circle cx="20.0001" cy="11.6666" r="3.33333" stroke="white" stroke-width="1.5"/>
</svg>
