<svg width="30" height="30" viewBox="0 0 30 30" fill="none" xmlns="http://www.w3.org/2000/svg">
<rect width="30" height="30" rx="8" fill="#F64E2A"/>
<path d="M14.1544 21.1113C14.1441 21.1583 14.1337 21.2053 14.1234 21.2523C14.3172 21.372 14.5061 21.5053 14.706 21.6089C16.1348 22.348 17.5646 23.0819 18.9961 23.8132C19.1448 23.8892 19.301 23.9574 19.46 23.989C19.7552 24.0476 19.9615 23.8699 19.9931 23.5165C20.0111 23.3195 19.9871 23.1096 19.9495 22.9145C19.6615 21.3984 19.3544 19.8875 19.0767 18.3688C18.9025 17.4179 19.0941 16.5469 19.6517 15.8297C20.9966 14.1011 22.3601 12.3919 23.7132 10.6724C23.8645 10.4799 24.084 10.2693 23.9669 9.9835C23.8438 9.68415 23.5656 9.78973 23.3511 9.83093C21.2662 10.2288 19.1818 10.6357 17.0985 11.0445C16.9537 11.0728 16.8143 11.1391 16.6722 11.1874C16.6727 11.2241 16.6738 11.2601 16.6744 11.2968C16.8083 11.3342 16.9412 11.3863 17.0767 11.405C17.698 11.4919 18.3199 11.5672 18.9417 11.6515C19.2128 11.6882 19.521 11.7011 19.6228 12.0668C19.7247 12.4312 19.484 12.6623 19.2885 12.885C18.5823 13.6878 17.8717 14.4861 17.1633 15.2857C16.5687 15.9572 16.4059 16.9022 16.7359 17.7894C17.0348 18.5941 17.3419 19.395 17.6381 20.201C17.9028 20.922 17.5875 21.4409 16.933 21.3662C16.1478 21.2767 15.3632 21.1763 14.5775 21.09C14.4386 21.0746 14.296 21.1029 14.1549 21.1106L14.1544 21.1113ZM11.8032 15.9327C11.8435 15.9224 11.8833 15.9121 11.9236 15.9018C11.9421 15.7273 11.9698 15.5535 11.9775 15.3784C12.0199 14.4159 12.0248 13.449 12.1087 12.491C12.1724 11.7655 12.6135 11.4391 13.2211 11.582C14.1446 11.7996 15.0648 12.041 15.9883 12.258C16.1369 12.2928 16.2987 12.2503 16.4544 12.2438C16.364 12.0867 16.2981 11.8955 16.18 11.779C15.422 11.0297 14.6521 10.2977 13.8865 9.55861C12.7561 8.4674 11.629 7.37104 10.4932 6.28691C10.3412 6.14141 10.1463 5.87102 9.95845 6.07124C9.84574 6.19098 9.82777 6.5309 9.87024 6.74335C10.4534 9.66097 11.0534 12.5741 11.6535 15.4872C11.6851 15.6411 11.752 15.7846 11.8027 15.9333L11.8032 15.9327ZM10.9462 15.8001C10.9206 15.7833 10.8955 15.7666 10.87 15.7505C10.7719 15.8471 10.6641 15.9333 10.5765 16.0421C9.14333 17.8183 7.71237 19.5965 6.28305 21.3765C6.19647 21.4847 6.11371 21.6038 6.05381 21.7338C5.93457 21.9933 6.01679 22.1812 6.2678 22.2018C6.41863 22.2141 6.57436 22.1787 6.72464 22.1439C8.289 21.7834 9.85336 21.4203 11.4172 21.0546C12.394 20.8261 13.3725 20.6053 14.3433 20.3458C14.511 20.3008 14.7022 20.1141 14.7795 19.9312C14.8835 19.6879 14.7256 19.4574 14.5617 19.2926C14.0569 18.7866 13.5478 18.2877 13.0349 17.7932C12.9608 17.7218 12.8574 17.6928 12.694 17.604C12.7387 17.8428 12.7545 17.9883 12.7942 18.1241C12.8944 18.4686 13.0169 18.804 13.1079 19.151C13.2135 19.554 13.073 19.7761 12.7169 19.7851C12.327 19.7954 11.9361 19.7664 11.5473 19.7941C10.7071 19.8546 10.3913 19.0698 10.5356 18.3308C10.6663 17.6632 10.7872 16.9924 10.9043 16.3209C10.9337 16.1509 10.9331 15.9739 10.9462 15.8001Z" fill="white"/>
</svg>
