<svg width="30" height="30" viewBox="0 0 30 30" fill="none" xmlns="http://www.w3.org/2000/svg">
<rect width="30" height="30" rx="8" fill="#F64E2A"/>
<path d="M16.6666 8.33329C16.6666 9.25377 15.9205 9.99996 15 9.99996C14.0795 9.99996 13.3333 9.25377 13.3333 8.33329C13.3333 7.41282 14.0795 6.66663 15 6.66663C15.9205 6.66663 16.6666 7.41282 16.6666 8.33329Z" stroke="white" stroke-width="1.5"/>
<path d="M16.6666 21.6666C16.6666 22.5871 15.9205 23.3333 15 23.3333C14.0795 23.3333 13.3333 22.5871 13.3333 21.6666C13.3333 20.7462 14.0795 20 15 20C15.9205 20 16.6666 20.7462 16.6666 21.6666Z" stroke="white" stroke-width="1.5"/>
<path d="M21.6068 13.11C20.8097 13.5702 19.7904 13.2971 19.3301 12.5C18.8699 11.7028 19.143 10.6835 19.9402 10.2232C20.7373 9.76301 21.7566 10.0361 22.2169 10.8333C22.6771 11.6304 22.404 12.6498 21.6068 13.11Z" stroke="white" stroke-width="1.5"/>
<path d="M10.0598 19.7767C9.26269 20.2369 8.24338 19.9638 7.78314 19.1666C7.3229 18.3695 7.59603 17.3502 8.39318 16.8899C9.19034 16.4297 10.2097 16.7028 10.6699 17.5C11.1301 18.2971 10.857 19.3164 10.0598 19.7767Z" stroke="white" stroke-width="1.5"/>
<path d="M19.9402 19.7767C19.143 19.3164 18.8699 18.2971 19.3301 17.5C19.7904 16.7028 20.8097 16.4297 21.6068 16.8899C22.404 17.3502 22.6771 18.3695 22.2169 19.1666C21.7566 19.9638 20.7373 20.2369 19.9402 19.7767Z" stroke="white" stroke-width="1.5"/>
<path d="M8.39318 13.11C7.59603 12.6498 7.3229 11.6305 7.78314 10.8333C8.24338 10.0362 9.26269 9.76303 10.0598 10.2233C10.857 10.6835 11.1301 11.7028 10.6699 12.5C10.2097 13.2971 9.19034 13.5703 8.39318 13.11Z" stroke="white" stroke-width="1.5"/>
</svg>
