<svg width="30" height="30" viewBox="0 0 30 30" fill="none" xmlns="http://www.w3.org/2000/svg">
<rect width="30" height="30" rx="8" fill="#229718"/>
<path d="M12.663 7.12476V15.0435H11.3885V8.67489L9.50049 9.33072V8.25213L12.5096 7.12476H12.663Z" fill="white"/>
<path d="M20.5005 14.0028V15.0435H15.339V14.1491L17.8457 11.347C18.1207 11.029 18.3375 10.7544 18.4962 10.5231C18.6548 10.2919 18.7659 10.0841 18.8293 9.89983C18.8963 9.71193 18.9298 9.52946 18.9298 9.3524C18.9298 9.10308 18.884 8.88447 18.7923 8.69657C18.7042 8.50506 18.5737 8.35511 18.401 8.24671C18.2282 8.13469 18.0184 8.07869 17.7716 8.07869C17.4861 8.07869 17.2463 8.14192 17.0524 8.26839C16.8585 8.39486 16.7122 8.57011 16.6135 8.79413C16.5148 9.01455 16.4654 9.26749 16.4654 9.55294H15.1909C15.1909 9.09404 15.2931 8.67489 15.4976 8.29549C15.7021 7.91247 15.9982 7.60895 16.3861 7.38492C16.7739 7.15728 17.241 7.04346 17.7875 7.04346C18.3023 7.04346 18.7394 7.13198 19.099 7.30904C19.4587 7.48609 19.7319 7.73722 19.9188 8.06243C20.1091 8.38763 20.2043 8.77245 20.2043 9.2169C20.2043 9.46261 20.1656 9.70651 20.088 9.94861C20.0104 10.1907 19.8994 10.4328 19.7548 10.6749C19.6138 10.9134 19.4463 11.1537 19.2524 11.3958C19.0585 11.6342 18.8452 11.8763 18.6125 12.122L16.9466 14.0028H20.5005Z" fill="white"/>
<path d="M9.63721 22.2251L11.0728 20.3452L8.95361 19.73L9.31592 18.6089L11.4214 19.4155L11.3257 17.0435H12.5151L12.4058 19.4634L14.4771 18.6567L14.8394 19.7983L12.6792 20.4204L14.0806 22.2593L13.1167 22.9565L11.8521 20.9741L10.6079 22.9019L9.63721 22.2251Z" fill="white"/>
<path d="M15.8442 22.2251L17.2798 20.3452L15.1606 19.73L15.5229 18.6089L17.6284 19.4155L17.5327 17.0435H18.7222L18.6128 19.4634L20.6841 18.6567L21.0464 19.7983L18.8862 20.4204L20.2876 22.2593L19.3237 22.9565L18.0591 20.9741L16.8149 22.9019L15.8442 22.2251Z" fill="white"/>
</svg>
