<svg width="30" height="30" viewBox="0 0 30 30" fill="none" xmlns="http://www.w3.org/2000/svg">
<rect width="30" height="30" rx="8" fill="#341897"/>
<g clip-path="url(#clip0_4049_72)">
<path fill-rule="evenodd" clip-rule="evenodd" d="M25 15C25 20.5228 20.5228 25 15 25C9.47715 25 5 20.5228 5 15C5 9.47715 9.47715 5 15 5C20.5228 5 25 9.47715 25 15ZM15.3584 12.3824C14.3857 12.787 12.4418 13.6243 9.52658 14.8944C9.05319 15.0827 8.80521 15.2668 8.78264 15.4469C8.74449 15.7512 9.12559 15.8711 9.64456 16.0343C9.71515 16.0565 9.78829 16.0795 9.86328 16.1038C10.3739 16.2698 11.0607 16.464 11.4177 16.4717C11.7416 16.4787 12.1031 16.3452 12.5022 16.0711C15.226 14.2325 16.632 13.3032 16.7203 13.2831C16.7825 13.269 16.8688 13.2512 16.9273 13.3032C16.9858 13.3552 16.98 13.4536 16.9738 13.48C16.9361 13.6409 15.4401 15.0317 14.6659 15.7515C14.4246 15.9759 14.2534 16.135 14.2184 16.1714C14.14 16.2528 14.0601 16.3298 13.9833 16.4038C13.509 16.8611 13.1533 17.204 14.003 17.764C14.4114 18.0331 14.7381 18.2556 15.0641 18.4776C15.4201 18.7201 15.7752 18.9619 16.2347 19.2631C16.3517 19.3398 16.4635 19.4195 16.5724 19.4971C16.9867 19.7925 17.359 20.0578 17.8188 20.0155C18.086 19.9909 18.3621 19.7397 18.5022 18.9903C18.8335 17.2193 19.4847 13.382 19.6352 11.8008C19.6484 11.6623 19.6318 11.485 19.6185 11.4071C19.6051 11.3293 19.5773 11.2184 19.4761 11.1363C19.3563 11.0391 19.1714 11.0186 19.0886 11.0201C18.7125 11.0267 18.1355 11.2273 15.3584 12.3824Z" fill="white"/>
</g>
<defs>
<clipPath id="clip0_4049_72">
<rect width="20" height="20" fill="white" transform="translate(5 5)"/>
</clipPath>
</defs>
</svg>
