<svg width="30" height="30" viewBox="0 0 30 30" fill="none" xmlns="http://www.w3.org/2000/svg">
<rect width="30" height="30" rx="8" fill="#1891AC"/>
<path d="M12 13.5H18M12 16.5H18M12 19.5H15M12 9C12 9.82843 12.6716 10.5 13.5 10.5H16.5C17.3284 10.5 18 9.82843 18 9M12 9C12 8.17157 12.6716 7.5 13.5 7.5H16.5C17.3284 7.5 18 8.17157 18 9M12 9H11.25C9.59315 9 8.25 10.3431 8.25 12V19.5C8.25 21.1569 9.59315 22.5 11.25 22.5H18.75C20.4069 22.5 21.75 21.1569 21.75 19.5V12C21.75 10.3431 20.4069 9 18.75 9H18" stroke="white" stroke-width="1.2" stroke-linecap="round"/>
</svg>
