<svg width="30" height="30" viewBox="0 0 30 30" fill="none" xmlns="http://www.w3.org/2000/svg">
<rect width="30" height="30" rx="8" fill="url(#paint0_linear_4002_6518)"/>
<path d="M15.5727 17.9214H13.8547C13.8608 17.3407 13.9132 16.8659 14.0117 16.497C14.1164 16.122 14.2857 15.7802 14.5197 15.4718C14.7537 15.1633 15.0647 14.8125 15.4526 14.4194C15.7358 14.1351 15.9945 13.869 16.2284 13.621C16.4686 13.3669 16.6626 13.0948 16.8103 12.8044C16.9581 12.5081 17.032 12.1542 17.032 11.7429C17.032 11.3256 16.955 10.9657 16.8011 10.6633C16.6533 10.3609 16.4317 10.128 16.1361 9.96472C15.8467 9.80141 15.4865 9.71976 15.0554 9.71976C14.6983 9.71976 14.3596 9.78327 14.0394 9.91028C13.7192 10.0373 13.4606 10.2339 13.2635 10.5C13.0665 10.7601 12.9649 11.1018 12.9587 11.5252H11.25C11.2623 10.8417 11.4347 10.255 11.7672 9.76512C12.1059 9.2752 12.5616 8.9002 13.1342 8.64012C13.7069 8.38004 14.3473 8.25 15.0554 8.25C15.8374 8.25 16.5025 8.38911 17.0505 8.66734C17.6047 8.94556 18.0265 9.34476 18.3159 9.86492C18.6053 10.379 18.75 10.9899 18.75 11.6976C18.75 12.2419 18.6361 12.744 18.4083 13.2036C18.1866 13.6573 17.9002 14.0837 17.5493 14.4829C17.1983 14.8821 16.8257 15.2631 16.4317 15.626C16.093 15.9345 15.8651 16.2823 15.7482 16.6694C15.6312 17.0565 15.5727 17.4738 15.5727 17.9214ZM13.7808 20.7974C13.7808 20.5252 13.867 20.2954 14.0394 20.1079C14.2118 19.9204 14.4612 19.8266 14.7876 19.8266C15.1201 19.8266 15.3725 19.9204 15.545 20.1079C15.7174 20.2954 15.8036 20.5252 15.8036 20.7974C15.8036 21.0575 15.7174 21.2812 15.545 21.4688C15.3725 21.6562 15.1201 21.75 14.7876 21.75C14.4612 21.75 14.2118 21.6562 14.0394 21.4688C13.867 21.2812 13.7808 21.0575 13.7808 20.7974Z" fill="white"/>
<defs>
<linearGradient id="paint0_linear_4002_6518" x1="3.28125" y1="1.40625" x2="26.7187" y2="30" gradientUnits="userSpaceOnUse">
<stop stop-color="#2B9E21"/>
<stop offset="1" stop-color="#19910F"/>
</linearGradient>
</defs>
</svg>
