<svg width="85" height="84" viewBox="0 0 85 84" fill="none" xmlns="http://www.w3.org/2000/svg">
<path d="M40.375 -9.5C36.8542 -9.5 34 -6.64582 34 -3.125V1.125C34 4.64581 36.8542 7.5 40.375 7.5H61.625C65.1458 7.5 68 4.64581 68 1.125V-3.125C68 -6.64582 65.1458 -9.5 61.625 -9.5H40.375Z" fill="url(#paint0_linear_313_4392)"/>
<path fill-rule="evenodd" clip-rule="evenodd" d="M27.625 -0.844385C22.2789 -0.544436 18.9039 0.307465 16.4844 2.727C12.75 6.46139 12.75 12.4718 12.75 24.4926V49.9926C12.75 62.0134 12.75 68.0238 16.4844 71.7582C20.2188 75.4926 26.2292 75.4926 38.25 75.4926H63.75C75.7708 75.4926 81.7812 75.4926 85.5156 71.7582C89.25 68.0238 89.25 62.0134 89.25 49.9926V24.4926C89.25 12.4718 89.25 6.46139 85.5156 2.727C83.0961 0.307465 79.7211 -0.544436 74.375 -0.844385V1.125C74.375 8.16663 68.6666 13.875 61.625 13.875H40.375C33.3334 13.875 27.625 8.16663 27.625 1.125V-0.844385ZM29.75 23.4375C27.9896 23.4375 26.5625 24.8646 26.5625 26.625C26.5625 28.3854 27.9896 29.8125 29.75 29.8125H31.875C33.6354 29.8125 35.0625 28.3854 35.0625 26.625C35.0625 24.8646 33.6354 23.4375 31.875 23.4375H29.75ZM44.625 23.4375C42.8646 23.4375 41.4375 24.8646 41.4375 26.625C41.4375 28.3854 42.8646 29.8125 44.625 29.8125H72.25C74.0104 29.8125 75.4375 28.3854 75.4375 26.625C75.4375 24.8646 74.0104 23.4375 72.25 23.4375H44.625ZM29.75 38.3125C27.9896 38.3125 26.5625 39.7396 26.5625 41.5C26.5625 43.2604 27.9896 44.6875 29.75 44.6875H31.875C33.6354 44.6875 35.0625 43.2604 35.0625 41.5C35.0625 39.7396 33.6354 38.3125 31.875 38.3125H29.75ZM44.625 38.3125C42.8646 38.3125 41.4375 39.7396 41.4375 41.5C41.4375 43.2604 42.8646 44.6875 44.625 44.6875H72.25C74.0104 44.6875 75.4375 43.2604 75.4375 41.5C75.4375 39.7396 74.0104 38.3125 72.25 38.3125H44.625ZM29.75 53.1875C27.9896 53.1875 26.5625 54.6146 26.5625 56.375C26.5625 58.1354 27.9896 59.5625 29.75 59.5625H31.875C33.6354 59.5625 35.0625 58.1354 35.0625 56.375C35.0625 54.6146 33.6354 53.1875 31.875 53.1875H29.75ZM44.625 53.1875C42.8646 53.1875 41.4375 54.6146 41.4375 56.375C41.4375 58.1354 42.8646 59.5625 44.625 59.5625H72.25C74.0104 59.5625 75.4375 58.1354 75.4375 56.375C75.4375 54.6146 74.0104 53.1875 72.25 53.1875H44.625Z" fill="url(#paint1_linear_313_4392)"/>
<defs>
<linearGradient id="paint0_linear_313_4392" x1="51" y1="0.499132" x2="51" y2="75.4926" gradientUnits="userSpaceOnUse">
<stop stop-color="white" stop-opacity="0.05"/>
<stop offset="1" stop-color="white" stop-opacity="0.01"/>
</linearGradient>
<linearGradient id="paint1_linear_313_4392" x1="51" y1="0.499132" x2="51" y2="75.4926" gradientUnits="userSpaceOnUse">
<stop stop-color="white" stop-opacity="0.05"/>
<stop offset="1" stop-color="white" stop-opacity="0.01"/>
</linearGradient>
</defs>
</svg>
