<svg width="77" height="77" viewBox="0 0 77 77" fill="none" xmlns="http://www.w3.org/2000/svg">
<path fill-rule="evenodd" clip-rule="evenodd" d="M43 76.5C66.4721 76.5 85.5 57.4721 85.5 34C85.5 10.5279 66.4721 -8.5 43 -8.5C19.5279 -8.5 0.5 10.5279 0.5 34C0.5 57.4721 19.5279 76.5 43 76.5ZM46.1875 21.25C46.1875 19.4896 44.7604 18.0625 43 18.0625C41.2396 18.0625 39.8125 19.4896 39.8125 21.25L39.8125 30.8126H30.25C28.4896 30.8126 27.0625 32.2397 27.0625 34.0001C27.0625 35.7605 28.4896 37.1876 30.25 37.1876H39.8125V46.75C39.8125 48.5104 41.2396 49.9375 43 49.9375C44.7604 49.9375 46.1875 48.5104 46.1875 46.75L46.1875 37.1876H55.75C57.5104 37.1876 58.9375 35.7605 58.9375 34.0001C58.9375 32.2397 57.5104 30.8126 55.75 30.8126H46.1875V21.25Z" fill="url(#paint0_linear_3001_2905)"/>
<defs>
<linearGradient id="paint0_linear_3001_2905" x1="43" y1="1.5" x2="43" y2="76.5" gradientUnits="userSpaceOnUse">
<stop stop-color="white" stop-opacity="0.05"/>
<stop offset="1" stop-color="white" stop-opacity="0.01"/>
</linearGradient>
</defs>
</svg>
