<svg width="89" height="90" viewBox="0 0 89 90" fill="none" xmlns="http://www.w3.org/2000/svg">
<path d="M29.75 -3.5H25.5C12.75 -3.5 8.5 4.1075 8.5 13.5V17.75V77.25C8.5 80.7775 12.495 82.775 15.3 80.65L22.5675 75.21C24.2675 73.935 26.6475 74.105 28.1775 75.635L35.2325 82.7325C36.89 84.39 39.61 84.39 41.2675 82.7325L48.4075 75.5925C49.895 74.105 52.275 73.935 53.9325 75.21L61.2 80.65C64.005 82.7325 68 80.735 68 77.25V5C68 0.325 71.825 -3.5 76.5 -3.5H29.75ZM47.8125 46.4375H28.6875C26.945 46.4375 25.5 44.9925 25.5 43.25C25.5 41.5075 26.945 40.0625 28.6875 40.0625H47.8125C49.555 40.0625 51 41.5075 51 43.25C51 44.9925 49.555 46.4375 47.8125 46.4375ZM51 29.4375H25.5C23.7575 29.4375 22.3125 27.9925 22.3125 26.25C22.3125 24.5075 23.7575 23.0625 25.5 23.0625H51C52.7425 23.0625 54.1875 24.5075 54.1875 26.25C54.1875 27.9925 52.7425 29.4375 51 29.4375Z" fill="url(#paint0_linear_3001_2559)"/>
<path d="M76.5425 -3.5V2.875C79.3475 2.875 82.025 4.0225 83.98 5.935C86.02 8.0175 87.125 10.695 87.125 13.5V23.785C87.125 26.93 85.7225 28.375 82.535 28.375H74.375V5.0425C74.375 3.8525 75.3525 2.875 76.5425 2.875V-3.5ZM76.5425 -3.5C71.825 -3.5 68 0.325001 68 5.0425V34.75H82.535C89.25 34.75 93.5 30.5 93.5 23.785V13.5C93.5 8.825 91.5875 4.575 88.5275 1.4725C85.425 -1.5875 81.2175 -3.4575 76.5425 -3.5C76.5425 -3.5 76.585 -3.5 76.5425 -3.5Z" fill="url(#paint1_linear_3001_2559)"/>
<defs>
<linearGradient id="paint0_linear_3001_2559" x1="42.5" y1="-3.5" x2="42.5" y2="83.9756" gradientUnits="userSpaceOnUse">
<stop offset="0.319" stop-color="white" stop-opacity="0.05"/>
<stop offset="1" stop-color="white" stop-opacity="0"/>
</linearGradient>
<linearGradient id="paint1_linear_3001_2559" x1="80.75" y1="-3.5" x2="80.75" y2="34.75" gradientUnits="userSpaceOnUse">
<stop offset="0.319" stop-color="white" stop-opacity="0.05"/>
<stop offset="1" stop-color="white" stop-opacity="0"/>
</linearGradient>
</defs>
</svg>
